{
	"asset":{
		"generator":"Khronos glTF Blender I/O v3.6.27",
		"version":"2.0"
	},
	"scene":0,
	"scenes":[
		{
			"name":"Scene",
			"nodes":[
				0,
				1,
				2,
				3,
				4,
				5,
				6,
				7,
				8,
				9,
				10,
				11,
				12,
				13,
				14,
				15,
				16
			]
		}
	],
	"nodes":[
		{
			"mesh":0,
			"name":"inner.001",
			"translation":[
				-0.042024336755275726,
				-0.48972320556640625,
				-0.7809017896652222
			]
		},
		{
			"mesh":1,
			"name":"outer.001",
			"translation":[
				-0.042024336755275726,
				-0.48972320556640625,
				-0.7809017896652222
			]
		},
		{
			"mesh":2,
			"name":"Outer.007",
			"rotation":[
				0,
				-0.7071067094802856,
				0,
				0.7071068286895752
			],
			"scale":[
				1.5342758893966675,
				1.5342758893966675,
				1.5342758893966675
			],
			"translation":[
				-0.057201411575078964,
				-0.4085572063922882,
				0.06742626428604126
			]
		},
		{
			"mesh":3,
			"name":"Inner.007",
			"rotation":[
				0,
				-0.7071067094802856,
				0,
				0.7071068286895752
			],
			"scale":[
				2.377903461456299,
				2.377903461456299,
				2.377903461456299
			],
			"translation":[
				0.03298342600464821,
				-0.40851137042045593,
				-0.03163468837738037
			]
		},
		{
			"name":"BezierCurve.007",
			"rotation":[
				0,
				0.7071068286895752,
				0,
				0.7071068286895752
			],
			"scale":[
				2.3661117553710938,
				2.3661117553710938,
				2.3661117553710938
			],
			"translation":[
				0.6275460124015808,
				-0.4085114896297455,
				0.2184244990348816
			]
		},
		{
			"mesh":4,
			"name":"Outer.006",
			"rotation":[
				0.7071068286895752,
				0,
				0.7071068286895752,
				1.9949604279645428e-07
			],
			"scale":[
				1.5342758893966675,
				1.5342758893966675,
				1.5342758893966675
			],
			"translation":[
				0.03857247903943062,
				-0.40851137042045593,
				1.096742033958435
			]
		},
		{
			"mesh":5,
			"name":"Inner.006",
			"rotation":[
				0.7071068286895752,
				0,
				0.7071068286895752,
				1.9949604279645428e-07
			],
			"scale":[
				2.377903461456299,
				2.377903461456299,
				2.377903461456299
			],
			"translation":[
				-0.05161236971616745,
				-0.4085572063922882,
				0.9976813793182373
			]
		},
		{
			"name":"BezierCurve.006",
			"rotation":[
				0,
				0.7071068286895752,
				0,
				0.7071068286895752
			],
			"scale":[
				2.3661117553710938,
				2.3661117553710938,
				2.3661117553710938
			],
			"translation":[
				0.6124186515808105,
				-0.4085114896297455,
				1.4249688386917114
			]
		},
		{
			"name":"Offset 2.005",
			"rotation":[
				0,
				0.7071068286895752,
				0,
				0.7071068286895752
			],
			"scale":[
				2.3661117553710938,
				2.3661117553710938,
				2.3661117553710938
			],
			"translation":[
				-0.5543217062950134,
				-0.4085114896297455,
				1.3698357343673706
			]
		},
		{
			"mesh":6,
			"name":"Outer.005",
			"rotation":[
				0.45597043633461,
				0,
				0.8899949193000793,
				3.460665709553723e-07
			],
			"scale":[
				1.534276008605957,
				1.5342758893966675,
				1.534276008605957
			],
			"translation":[
				-0.38359925150871277,
				-0.40851137042045593,
				0.7978290319442749
			]
		},
		{
			"mesh":7,
			"name":"Inner.005",
			"rotation":[
				0.45597043633461,
				0,
				0.8899949193000793,
				3.460665709553723e-07
			],
			"scale":[
				2.377903461456299,
				2.377903461456299,
				2.377903461456299
			],
			"translation":[
				-0.39892566204071045,
				-0.4085572063922882,
				0.6647442579269409
			]
		},
		{
			"name":"BezierCurve.005",
			"rotation":[
				0,
				0.496094673871994,
				0,
				0.8682685494422913
			],
			"scale":[
				2.3661112785339355,
				2.3661117553710938,
				2.3661112785339355
			],
			"translation":[
				0.06828734278678894,
				-0.4085114896297455,
				1.4668980836868286
			]
		},
		{
			"name":"Offset 2.004",
			"rotation":[
				0,
				0.496094673871994,
				0,
				0.8682685494422913
			],
			"scale":[
				2.3661112785339355,
				2.3661117553710938,
				2.3661112785339355
			],
			"translation":[
				-0.9088481664657593,
				-0.4085114896297455,
				0.8269538879394531
			]
		},
		{
			"mesh":8,
			"name":"Outer.004",
			"rotation":[
				0.7071068286895752,
				0,
				0.7071068286895752,
				1.9949604279645428e-07
			],
			"scale":[
				1.5342758893966675,
				1.5342758893966675,
				1.5342758893966675
			],
			"translation":[
				0.2093055546283722,
				-0.40851137042045593,
				0.5560084581375122
			]
		},
		{
			"name":"Offset 2.003",
			"rotation":[
				0,
				0.7071068286895752,
				0,
				0.7071068286895752
			],
			"scale":[
				2.3661117553710938,
				2.3661117553710938,
				2.3661117553710938
			],
			"translation":[
				-0.38443538546562195,
				-0.4085114896297455,
				0.8317830562591553
			]
		},
		{
			"mesh":9,
			"name":"Inner.004",
			"rotation":[
				0.7071068286895752,
				0,
				0.7071068286895752,
				1.9949604279645428e-07
			],
			"scale":[
				2.377903461456299,
				2.377903461456299,
				2.377903461456299
			],
			"translation":[
				0.11912064254283905,
				-0.4085572063922882,
				0.4569472074508667
			]
		},
		{
			"name":"BezierCurve.004",
			"rotation":[
				0,
				0.7071068286895752,
				0,
				0.7071068286895752
			],
			"scale":[
				2.3661117553710938,
				2.3661117553710938,
				2.3661117553710938
			],
			"translation":[
				0.7823048830032349,
				-0.4085114896297455,
				0.8869167566299438
			]
		}
	],
	"materials":[
		{
			"doubleSided":true,
			"name":"Material.004",
			"pbrMetallicRoughness":{
				"baseColorFactor":[
					0.800000011920929,
					0.800000011920929,
					0.800000011920929,
					1
				],
				"metallicFactor":0,
				"roughnessFactor":0.5
			}
		},
		{
			"doubleSided":true,
			"name":"Material.001",
			"pbrMetallicRoughness":{
				"baseColorFactor":[
					0.8000000715255737,
					0.0172499381005764,
					0.03430316224694252,
					1
				],
				"metallicFactor":0,
				"roughnessFactor":0.5
			}
		},
		{
			"doubleSided":true,
			"name":"Poctli outer.004",
			"pbrMetallicRoughness":{
				"baseColorFactor":[
					0.051793210208415985,
					0.12608925998210907,
					0.3238341808319092,
					1
				],
				"metallicFactor":0,
				"roughnessFactor":0.5
			}
		},
		{
			"doubleSided":true,
			"name":"Poctli inner.008",
			"pbrMetallicRoughness":{
				"baseColorFactor":[
					0.8000000715255737,
					0.8000000715255737,
					0.8000000715255737,
					1
				],
				"metallicFactor":0,
				"roughnessFactor":0.5
			}
		}
	],
	"meshes":[
		{
			"name":"Circle.001",
			"primitives":[
				{
					"attributes":{
						"POSITION":0,
						"NORMAL":1,
						"TEXCOORD_0":2
					},
					"indices":3
				}
			]
		},
		{
			"name":"Circle.002",
			"primitives":[
				{
					"attributes":{
						"POSITION":4,
						"NORMAL":5,
						"TEXCOORD_0":6
					},
					"indices":7,
					"material":0
				},
				{
					"attributes":{
						"POSITION":8,
						"NORMAL":9,
						"TEXCOORD_0":10
					},
					"indices":11,
					"material":1
				}
			]
		},
		{
			"name":"NurbsPath.017",
			"primitives":[
				{
					"attributes":{
						"POSITION":12,
						"NORMAL":13,
						"TEXCOORD_0":14
					},
					"indices":15,
					"material":2
				}
			]
		},
		{
			"name":"NurbsPath.016",
			"primitives":[
				{
					"attributes":{
						"POSITION":16,
						"NORMAL":17,
						"TEXCOORD_0":18
					},
					"indices":19,
					"material":3
				}
			]
		},
		{
			"name":"NurbsPath.014",
			"primitives":[
				{
					"attributes":{
						"POSITION":20,
						"NORMAL":21,
						"TEXCOORD_0":22
					},
					"indices":23,
					"material":2
				}
			]
		},
		{
			"name":"NurbsPath.015",
			"primitives":[
				{
					"attributes":{
						"POSITION":24,
						"NORMAL":25,
						"TEXCOORD_0":26
					},
					"indices":27,
					"material":3
				}
			]
		},
		{
			"name":"NurbsPath.011",
			"primitives":[
				{
					"attributes":{
						"POSITION":28,
						"NORMAL":29,
						"TEXCOORD_0":30
					},
					"indices":31,
					"material":2
				}
			]
		},
		{
			"name":"NurbsPath.010",
			"primitives":[
				{
					"attributes":{
						"POSITION":32,
						"NORMAL":33,
						"TEXCOORD_0":34
					},
					"indices":35,
					"material":3
				}
			]
		},
		{
			"name":"NurbsPath.007",
			"primitives":[
				{
					"attributes":{
						"POSITION":36,
						"NORMAL":37,
						"TEXCOORD_0":38
					},
					"indices":39,
					"material":2
				}
			]
		},
		{
			"name":"NurbsPath.006",
			"primitives":[
				{
					"attributes":{
						"POSITION":40,
						"NORMAL":41,
						"TEXCOORD_0":42
					},
					"indices":43,
					"material":3
				}
			]
		}
	],
	"accessors":[
		{
			"bufferView":0,
			"componentType":5126,
			"count":88,
			"max":[
				0.2400253415107727,
				0.2410043478012085,
				0.1274808943271637
			],
			"min":[
				-0.12274603545665741,
				0.028674684464931488,
				-0.053904786705970764
			],
			"type":"VEC3"
		},
		{
			"bufferView":1,
			"componentType":5126,
			"count":88,
			"type":"VEC3"
		},
		{
			"bufferView":2,
			"componentType":5126,
			"count":88,
			"type":"VEC2"
		},
		{
			"bufferView":3,
			"componentType":5123,
			"count":504,
			"type":"SCALAR"
		},
		{
			"bufferView":4,
			"componentType":5126,
			"count":272,
			"max":[
				0.4231748580932617,
				0.24100419878959656,
				0.1274808943271637
			],
			"min":[
				-0.30589553713798523,
				0.028674684464931488,
				-0.23705433309078217
			],
			"type":"VEC3"
		},
		{
			"bufferView":5,
			"componentType":5126,
			"count":272,
			"type":"VEC3"
		},
		{
			"bufferView":6,
			"componentType":5126,
			"count":272,
			"type":"VEC2"
		},
		{
			"bufferView":7,
			"componentType":5123,
			"count":1536,
			"type":"SCALAR"
		},
		{
			"bufferView":8,
			"componentType":5126,
			"count":178,
			"max":[
				0.4231748580932617,
				0.24100419878959656,
				0.492016077041626
			],
			"min":[
				-0.30589553713798523,
				0.028674684464931488,
				0.1274808943271637
			],
			"type":"VEC3"
		},
		{
			"bufferView":9,
			"componentType":5126,
			"count":178,
			"type":"VEC3"
		},
		{
			"bufferView":10,
			"componentType":5126,
			"count":178,
			"type":"VEC2"
		},
		{
			"bufferView":11,
			"componentType":5123,
			"count":969,
			"type":"SCALAR"
		},
		{
			"bufferView":12,
			"componentType":5126,
			"count":5732,
			"max":[
				0.1935749053955078,
				0.04994457587599754,
				0.14970611035823822
			],
			"min":[
				-0.34375274181365967,
				-0.05232939124107361,
				-0.1391693353652954
			],
			"type":"VEC3"
		},
		{
			"bufferView":13,
			"componentType":5126,
			"count":5732,
			"type":"VEC3"
		},
		{
			"bufferView":14,
			"componentType":5126,
			"count":5732,
			"type":"VEC2"
		},
		{
			"bufferView":15,
			"componentType":5123,
			"count":33108,
			"type":"SCALAR"
		},
		{
			"bufferView":16,
			"componentType":5126,
			"count":1976,
			"max":[
				0.12532536685466766,
				0.027370678260922432,
				0.06825877726078033
			],
			"min":[
				-0.175482839345932,
				-0.02737068198621273,
				-0.047045931220054626
			],
			"type":"VEC3"
		},
		{
			"bufferView":17,
			"componentType":5126,
			"count":1976,
			"type":"VEC3"
		},
		{
			"bufferView":18,
			"componentType":5126,
			"count":1976,
			"type":"VEC2"
		},
		{
			"bufferView":19,
			"componentType":5123,
			"count":11076,
			"type":"SCALAR"
		},
		{
			"bufferView":20,
			"componentType":5126,
			"count":5686,
			"max":[
				0.20698416233062744,
				0.06636078655719757,
				0.16558948159217834
			],
			"min":[
				-0.5580036640167236,
				-0.06636078655719757,
				-0.14435482025146484
			],
			"type":"VEC3"
		},
		{
			"bufferView":21,
			"componentType":5126,
			"count":5686,
			"type":"VEC3"
		},
		{
			"bufferView":22,
			"componentType":5126,
			"count":5686,
			"type":"VEC2"
		},
		{
			"bufferView":23,
			"componentType":5123,
			"count":32976,
			"type":"SCALAR"
		},
		{
			"bufferView":24,
			"componentType":5126,
			"count":2252,
			"max":[
				0.12531010806560516,
				0.0275383610278368,
				0.06654638797044754
			],
			"min":[
				-0.29314905405044556,
				-0.027538364753127098,
				-0.05086899176239967
			],
			"type":"VEC3"
		},
		{
			"bufferView":25,
			"componentType":5126,
			"count":2252,
			"type":"VEC3"
		},
		{
			"bufferView":26,
			"componentType":5126,
			"count":2252,
			"type":"VEC2"
		},
		{
			"bufferView":27,
			"componentType":5123,
			"count":12660,
			"type":"SCALAR"
		},
		{
			"bufferView":28,
			"componentType":5126,
			"count":5686,
			"max":[
				0.20692194998264313,
				0.06646795570850372,
				0.16552484035491943
			],
			"min":[
				-0.45580989122390747,
				-0.06646794825792313,
				-0.14430059492588043
			],
			"type":"VEC3"
		},
		{
			"bufferView":29,
			"componentType":5126,
			"count":5686,
			"type":"VEC3"
		},
		{
			"bufferView":30,
			"componentType":5126,
			"count":5686,
			"type":"VEC2"
		},
		{
			"bufferView":31,
			"componentType":5123,
			"count":32976,
			"type":"SCALAR"
		},
		{
			"bufferView":32,
			"componentType":5126,
			"count":1976,
			"max":[
				0.1253119558095932,
				0.027528775855898857,
				0.06797777116298676
			],
			"min":[
				-0.22659024596214294,
				-0.027528779581189156,
				-0.046742796897888184
			],
			"type":"VEC3"
		},
		{
			"bufferView":33,
			"componentType":5126,
			"count":1976,
			"type":"VEC3"
		},
		{
			"bufferView":34,
			"componentType":5126,
			"count":1976,
			"type":"VEC2"
		},
		{
			"bufferView":35,
			"componentType":5123,
			"count":11076,
			"type":"SCALAR"
		},
		{
			"bufferView":36,
			"componentType":5126,
			"count":1972,
			"max":[
				0.18714655935764313,
				0.06034175306558609,
				0.1030258759856224
			],
			"min":[
				-0.19025322794914246,
				-0.060341738164424896,
				-0.12170417606830597
			],
			"type":"VEC3"
		},
		{
			"bufferView":37,
			"componentType":5126,
			"count":1972,
			"type":"VEC3"
		},
		{
			"bufferView":38,
			"componentType":5126,
			"count":1972,
			"type":"VEC2"
		},
		{
			"bufferView":39,
			"componentType":5123,
			"count":11028,
			"type":"SCALAR"
		},
		{
			"bufferView":40,
			"componentType":5126,
			"count":1148,
			"max":[
				0.09878309816122055,
				0.02794703096151352,
				0.03851228952407837
			],
			"min":[
				-0.10793651640415192,
				-0.027947017922997475,
				-0.0350414514541626
			],
			"type":"VEC3"
		},
		{
			"bufferView":41,
			"componentType":5126,
			"count":1148,
			"type":"VEC3"
		},
		{
			"bufferView":42,
			"componentType":5126,
			"count":1148,
			"type":"VEC2"
		},
		{
			"bufferView":43,
			"componentType":5123,
			"count":6324,
			"type":"SCALAR"
		}
	],
	"bufferViews":[
		{
			"buffer":0,
			"byteLength":1056,
			"byteOffset":0,
			"target":34962
		},
		{
			"buffer":0,
			"byteLength":1056,
			"byteOffset":1056,
			"target":34962
		},
		{
			"buffer":0,
			"byteLength":704,
			"byteOffset":2112,
			"target":34962
		},
		{
			"buffer":0,
			"byteLength":1008,
			"byteOffset":2816,
			"target":34963
		},
		{
			"buffer":0,
			"byteLength":3264,
			"byteOffset":3824,
			"target":34962
		},
		{
			"buffer":0,
			"byteLength":3264,
			"byteOffset":7088,
			"target":34962
		},
		{
			"buffer":0,
			"byteLength":2176,
			"byteOffset":10352,
			"target":34962
		},
		{
			"buffer":0,
			"byteLength":3072,
			"byteOffset":12528,
			"target":34963
		},
		{
			"buffer":0,
			"byteLength":2136,
			"byteOffset":15600,
			"target":34962
		},
		{
			"buffer":0,
			"byteLength":2136,
			"byteOffset":17736,
			"target":34962
		},
		{
			"buffer":0,
			"byteLength":1424,
			"byteOffset":19872,
			"target":34962
		},
		{
			"buffer":0,
			"byteLength":1938,
			"byteOffset":21296,
			"target":34963
		},
		{
			"buffer":0,
			"byteLength":68784,
			"byteOffset":23236,
			"target":34962
		},
		{
			"buffer":0,
			"byteLength":68784,
			"byteOffset":92020,
			"target":34962
		},
		{
			"buffer":0,
			"byteLength":45856,
			"byteOffset":160804,
			"target":34962
		},
		{
			"buffer":0,
			"byteLength":66216,
			"byteOffset":206660,
			"target":34963
		},
		{
			"buffer":0,
			"byteLength":23712,
			"byteOffset":272876,
			"target":34962
		},
		{
			"buffer":0,
			"byteLength":23712,
			"byteOffset":296588,
			"target":34962
		},
		{
			"buffer":0,
			"byteLength":15808,
			"byteOffset":320300,
			"target":34962
		},
		{
			"buffer":0,
			"byteLength":22152,
			"byteOffset":336108,
			"target":34963
		},
		{
			"buffer":0,
			"byteLength":68232,
			"byteOffset":358260,
			"target":34962
		},
		{
			"buffer":0,
			"byteLength":68232,
			"byteOffset":426492,
			"target":34962
		},
		{
			"buffer":0,
			"byteLength":45488,
			"byteOffset":494724,
			"target":34962
		},
		{
			"buffer":0,
			"byteLength":65952,
			"byteOffset":540212,
			"target":34963
		},
		{
			"buffer":0,
			"byteLength":27024,
			"byteOffset":606164,
			"target":34962
		},
		{
			"buffer":0,
			"byteLength":27024,
			"byteOffset":633188,
			"target":34962
		},
		{
			"buffer":0,
			"byteLength":18016,
			"byteOffset":660212,
			"target":34962
		},
		{
			"buffer":0,
			"byteLength":25320,
			"byteOffset":678228,
			"target":34963
		},
		{
			"buffer":0,
			"byteLength":68232,
			"byteOffset":703548,
			"target":34962
		},
		{
			"buffer":0,
			"byteLength":68232,
			"byteOffset":771780,
			"target":34962
		},
		{
			"buffer":0,
			"byteLength":45488,
			"byteOffset":840012,
			"target":34962
		},
		{
			"buffer":0,
			"byteLength":65952,
			"byteOffset":885500,
			"target":34963
		},
		{
			"buffer":0,
			"byteLength":23712,
			"byteOffset":951452,
			"target":34962
		},
		{
			"buffer":0,
			"byteLength":23712,
			"byteOffset":975164,
			"target":34962
		},
		{
			"buffer":0,
			"byteLength":15808,
			"byteOffset":998876,
			"target":34962
		},
		{
			"buffer":0,
			"byteLength":22152,
			"byteOffset":1014684,
			"target":34963
		},
		{
			"buffer":0,
			"byteLength":23664,
			"byteOffset":1036836,
			"target":34962
		},
		{
			"buffer":0,
			"byteLength":23664,
			"byteOffset":1060500,
			"target":34962
		},
		{
			"buffer":0,
			"byteLength":15776,
			"byteOffset":1084164,
			"target":34962
		},
		{
			"buffer":0,
			"byteLength":22056,
			"byteOffset":1099940,
			"target":34963
		},
		{
			"buffer":0,
			"byteLength":13776,
			"byteOffset":1121996,
			"target":34962
		},
		{
			"buffer":0,
			"byteLength":13776,
			"byteOffset":1135772,
			"target":34962
		},
		{
			"buffer":0,
			"byteLength":9184,
			"byteOffset":1149548,
			"target":34962
		},
		{
			"buffer":0,
			"byteLength":12648,
			"byteOffset":1158732,
			"target":34963
		}
	],
	"buffers":[
		{
			"byteLength":1171380,
			"uri":"data:application/octet-stream;base64,"
		}
	]
}
