{
	"asset":{
		"generator":"Khronos glTF Blender I/O v3.6.27",
		"version":"2.0"
	},
	"scene":0,
	"scenes":[
		{
			"name":"Scene",
			"nodes":[
				0,
				1,
				2,
				3,
				4,
				5,
				6
			]
		}
	],
	"nodes":[
		{
			"name":"Plane.002",
			"rotation":[
				0,
				0,
				-0.7071068286895752,
				0.7071068286895752
			],
			"translation":[
				-1.8927537202835083,
				1.5520949363708496,
				-3.8270034790039062
			]
		},
		{
			"mesh":0,
			"name":"Spike true",
			"rotation":[
				0.017824383452534676,
				0,
				0,
				0.9998411536216736
			],
			"translation":[
				-1.83356511592865,
				1.9449646472930908,
				0
			]
		},
		{
			"mesh":1,
			"name":"Inner circle",
			"rotation":[
				0,
				0,
				-0.7071066498756409,
				0.70710688829422
			],
			"translation":[
				-1.673290491104126,
				0.29489052295684814,
				-4.659173488616943
			]
		},
		{
			"mesh":2,
			"name":"Outer ring",
			"rotation":[
				0,
				0,
				-0.7071068286895752,
				0.7071068286895752
			],
			"translation":[
				-1.7773360013961792,
				0.3754883408546448,
				-4.679831027984619
			]
		},
		{
			"mesh":3,
			"name":"Circle",
			"rotation":[
				0,
				0,
				-0.7071068286895752,
				0.7071068286895752
			],
			"translation":[
				-1.6426260471343994,
				-0.673405110836029,
				-4.600898742675781
			]
		},
		{
			"mesh":4,
			"name":"Circle.001",
			"rotation":[
				0,
				0,
				-0.7071068286895752,
				0.7071068286895752
			],
			"translation":[
				-1.3397794961929321,
				-0.8105623126029968,
				-4.600898742675781
			]
		},
		{
			"mesh":5,
			"name":"Tear canvas.002",
			"rotation":[
				0,
				0,
				-0.7071068286895752,
				0.7071068286895752
			],
			"translation":[
				-0.05463838577270508,
				0.2300700545310974,
				-4.639138698577881
			]
		}
	],
	"materials":[
		{
			"doubleSided":true,
			"name":"Material.003",
			"pbrMetallicRoughness":{
				"metallicFactor":0,
				"roughnessFactor":0.5
			}
		},
		{
			"doubleSided":true,
			"name":"Material.004",
			"pbrMetallicRoughness":{
				"baseColorFactor":[
					1,
					0.03189576789736748,
					0.07227186858654022,
					1
				],
				"metallicFactor":0,
				"roughnessFactor":0.5
			}
		},
		{
			"doubleSided":true,
			"name":"Red paint.001",
			"pbrMetallicRoughness":{
				"baseColorFactor":[
					0.8000000715255737,
					0.05229385942220688,
					0.044544003903865814,
					1
				],
				"metallicFactor":0,
				"roughnessFactor":0.5
			}
		},
		{
			"doubleSided":true,
			"name":"White paint.001",
			"pbrMetallicRoughness":{
				"baseColorFactor":[
					0.800000011920929,
					0.800000011920929,
					0.800000011920929,
					1
				],
				"metallicFactor":0,
				"roughnessFactor":0.5
			}
		},
		{
			"doubleSided":true,
			"name":"Yellow paint.002",
			"pbrMetallicRoughness":{
				"baseColorFactor":[
					1,
					0.5332760810852051,
					0,
					1
				],
				"metallicFactor":0,
				"roughnessFactor":0.5
			}
		},
		{
			"doubleSided":true,
			"name":"Material.001",
			"pbrMetallicRoughness":{
				"baseColorFactor":[
					0.001214070012792945,
					0.00367648433893919,
					0.05612848326563835,
					1
				],
				"metallicFactor":0,
				"roughnessFactor":0.5
			}
		},
		{
			"doubleSided":true,
			"name":"Yellow paint.004",
			"pbrMetallicRoughness":{
				"baseColorFactor":[
					1,
					0.5332760810852051,
					0,
					1
				],
				"metallicFactor":0,
				"roughnessFactor":0.5
			}
		},
		{
			"doubleSided":true,
			"name":"Red paint.004",
			"pbrMetallicRoughness":{
				"baseColorFactor":[
					0.7991031408309937,
					0.05286043882369995,
					0.04518624767661095,
					1
				],
				"metallicFactor":0,
				"roughnessFactor":0.5
			}
		},
		{
			"doubleSided":true,
			"name":"White paint.003",
			"pbrMetallicRoughness":{
				"baseColorFactor":[
					0.800000011920929,
					0.800000011920929,
					0.800000011920929,
					1
				],
				"metallicFactor":0,
				"roughnessFactor":0.5
			}
		},
		{
			"doubleSided":true,
			"name":"Material.006",
			"pbrMetallicRoughness":{
				"baseColorFactor":[
					0.800000011920929,
					0.800000011920929,
					0.800000011920929,
					1
				],
				"metallicFactor":0,
				"roughnessFactor":0.5
			}
		},
		{
			"doubleSided":true,
			"name":"Black paint.002",
			"pbrMetallicRoughness":{
				"baseColorFactor":[
					0.0012333625927567482,
					0.0036138040013611317,
					0.05609572306275368,
					1
				],
				"metallicFactor":0,
				"roughnessFactor":0.5
			}
		}
	],
	"meshes":[
		{
			"name":"Cone.001",
			"primitives":[
				{
					"attributes":{
						"POSITION":0,
						"NORMAL":1,
						"TEXCOORD_0":2
					},
					"indices":3,
					"material":0
				},
				{
					"attributes":{
						"POSITION":4,
						"NORMAL":5,
						"TEXCOORD_0":6
					},
					"indices":7,
					"material":1
				}
			]
		},
		{
			"name":"Circle.003",
			"primitives":[
				{
					"attributes":{
						"POSITION":8,
						"NORMAL":9,
						"TEXCOORD_0":10
					},
					"indices":11,
					"material":2
				},
				{
					"attributes":{
						"POSITION":12,
						"NORMAL":13,
						"TEXCOORD_0":14
					},
					"indices":15,
					"material":3
				}
			]
		},
		{
			"name":"Plane.001",
			"primitives":[
				{
					"attributes":{
						"POSITION":16,
						"NORMAL":17,
						"TEXCOORD_0":18
					},
					"indices":19,
					"material":4
				}
			]
		},
		{
			"name":"Circle.004",
			"primitives":[
				{
					"attributes":{
						"POSITION":20,
						"NORMAL":21,
						"TEXCOORD_0":22
					},
					"indices":23
				}
			]
		},
		{
			"name":"Circle.005",
			"primitives":[
				{
					"attributes":{
						"POSITION":24,
						"NORMAL":25,
						"TEXCOORD_0":26
					},
					"indices":27,
					"material":5
				}
			]
		},
		{
			"name":"Plane.009",
			"primitives":[
				{
					"attributes":{
						"POSITION":28,
						"NORMAL":29,
						"TEXCOORD_0":30
					},
					"indices":31,
					"material":6
				},
				{
					"attributes":{
						"POSITION":32,
						"NORMAL":33,
						"TEXCOORD_0":34
					},
					"indices":35,
					"material":7
				},
				{
					"attributes":{
						"POSITION":36,
						"NORMAL":37,
						"TEXCOORD_0":38
					},
					"indices":39,
					"material":8
				},
				{
					"attributes":{
						"POSITION":40,
						"NORMAL":41,
						"TEXCOORD_0":42
					},
					"indices":43,
					"material":9
				},
				{
					"attributes":{
						"POSITION":44,
						"NORMAL":45,
						"TEXCOORD_0":46
					},
					"indices":47,
					"material":10
				}
			]
		}
	],
	"accessors":[
		{
			"bufferView":0,
			"componentType":5126,
			"count":576,
			"max":[
				-0.07252401113510132,
				0.20423880219459534,
				-2.2512261867523193
			],
			"min":[
				-0.31945499777793884,
				-2.1885039806365967,
				-6.964071273803711
			],
			"type":"VEC3"
		},
		{
			"bufferView":1,
			"componentType":5126,
			"count":576,
			"type":"VEC3"
		},
		{
			"bufferView":2,
			"componentType":5126,
			"count":576,
			"type":"VEC2"
		},
		{
			"bufferView":3,
			"componentType":5123,
			"count":2700,
			"type":"SCALAR"
		},
		{
			"bufferView":4,
			"componentType":5126,
			"count":312,
			"max":[
				-0.00959622859954834,
				-0.6336930394172668,
				-3.294813871383667
			],
			"min":[
				-0.4095618724822998,
				-2.159770965576172,
				-5.933541774749756
			],
			"type":"VEC3"
		},
		{
			"bufferView":5,
			"componentType":5126,
			"count":312,
			"type":"VEC3"
		},
		{
			"bufferView":6,
			"componentType":5126,
			"count":312,
			"type":"VEC2"
		},
		{
			"bufferView":7,
			"componentType":5123,
			"count":840,
			"type":"SCALAR"
		},
		{
			"bufferView":8,
			"componentType":5126,
			"count":272,
			"max":[
				0.2978774905204773,
				-0.003221124177798629,
				0.3104230761528015
			],
			"min":[
				-0.030402347445487976,
				-0.2032211422920227,
				-0.34613659977912903
			],
			"type":"VEC3"
		},
		{
			"bufferView":9,
			"componentType":5126,
			"count":272,
			"type":"VEC3"
		},
		{
			"bufferView":10,
			"componentType":5126,
			"count":272,
			"type":"VEC2"
		},
		{
			"bufferView":11,
			"componentType":5123,
			"count":1536,
			"type":"SCALAR"
		},
		{
			"bufferView":12,
			"componentType":5126,
			"count":272,
			"max":[
				-0.030402347445487976,
				-0.003221124177798629,
				0.3104230761528015
			],
			"min":[
				-0.35868215560913086,
				-0.2032211422920227,
				-0.34613659977912903
			],
			"type":"VEC3"
		},
		{
			"bufferView":13,
			"componentType":5126,
			"count":272,
			"type":"VEC3"
		},
		{
			"bufferView":14,
			"componentType":5126,
			"count":272,
			"type":"VEC2"
		},
		{
			"bufferView":15,
			"componentType":5123,
			"count":1536,
			"type":"SCALAR"
		},
		{
			"bufferView":16,
			"componentType":5126,
			"count":5820,
			"max":[
				0.3477102816104889,
				0.15023654699325562,
				0.8634745478630066
			],
			"min":[
				-0.5109322667121887,
				-0.04981623589992523,
				-0.8634745478630066
			],
			"type":"VEC3"
		},
		{
			"bufferView":17,
			"componentType":5126,
			"count":5820,
			"type":"VEC3"
		},
		{
			"bufferView":18,
			"componentType":5126,
			"count":5820,
			"type":"VEC2"
		},
		{
			"bufferView":19,
			"componentType":5123,
			"count":9396,
			"type":"SCALAR"
		},
		{
			"bufferView":20,
			"componentType":5126,
			"count":968,
			"max":[
				-0.8698899745941162,
				-0.03410317748785019,
				0.050681374967098236
			],
			"min":[
				-1.1260263919830322,
				-0.23410317301750183,
				-0.2054549902677536
			],
			"type":"VEC3"
		},
		{
			"bufferView":21,
			"componentType":5126,
			"count":968,
			"type":"VEC3"
		},
		{
			"bufferView":22,
			"componentType":5126,
			"count":968,
			"type":"VEC2"
		},
		{
			"bufferView":23,
			"componentType":5123,
			"count":1536,
			"type":"SCALAR"
		},
		{
			"bufferView":24,
			"componentType":5126,
			"count":32,
			"max":[
				-0.6231816411018372,
				-0.4755808115005493,
				0.4361629784107208
			],
			"min":[
				-1.6475147008895874,
				-0.4755808115005493,
				-0.588170051574707
			],
			"type":"VEC3"
		},
		{
			"bufferView":25,
			"componentType":5126,
			"count":32,
			"type":"VEC3"
		},
		{
			"bufferView":26,
			"componentType":5126,
			"count":32,
			"type":"VEC2"
		},
		{
			"bufferView":27,
			"componentType":5123,
			"count":90,
			"type":"SCALAR"
		},
		{
			"bufferView":28,
			"componentType":5126,
			"count":921,
			"max":[
				0.09175026416778564,
				-1.6461127996444702,
				1.715704321861267
			],
			"min":[
				-1.8504400253295898,
				-1.846701741218567,
				-1.7951589822769165
			],
			"type":"VEC3"
		},
		{
			"bufferView":29,
			"componentType":5126,
			"count":921,
			"type":"VEC3"
		},
		{
			"bufferView":30,
			"componentType":5126,
			"count":921,
			"type":"VEC2"
		},
		{
			"bufferView":31,
			"componentType":5123,
			"count":5436,
			"type":"SCALAR"
		},
		{
			"bufferView":32,
			"componentType":5126,
			"count":816,
			"max":[
				-0.2264818698167801,
				-1.645475149154663,
				1.2804017066955566
			],
			"min":[
				-1.3476858139038086,
				-1.7463687658309937,
				-1.358823299407959
			],
			"type":"VEC3"
		},
		{
			"bufferView":33,
			"componentType":5126,
			"count":816,
			"type":"VEC3"
		},
		{
			"bufferView":34,
			"componentType":5126,
			"count":816,
			"type":"VEC2"
		},
		{
			"bufferView":35,
			"componentType":5123,
			"count":4608,
			"type":"SCALAR"
		},
		{
			"bufferView":36,
			"componentType":5126,
			"count":816,
			"max":[
				-0.24088765680789948,
				-1.645475149154663,
				1.4454014301300049
			],
			"min":[
				-1.5987801551818848,
				-1.7463687658309937,
				-1.525858998298645
			],
			"type":"VEC3"
		},
		{
			"bufferView":37,
			"componentType":5126,
			"count":816,
			"type":"VEC3"
		},
		{
			"bufferView":38,
			"componentType":5126,
			"count":816,
			"type":"VEC2"
		},
		{
			"bufferView":39,
			"componentType":5123,
			"count":4608,
			"type":"SCALAR"
		},
		{
			"bufferView":40,
			"componentType":5126,
			"count":1152,
			"max":[
				-0.35667258501052856,
				-1.645475149154663,
				1.3151578903198242
			],
			"min":[
				-1.4684313535690308,
				-1.6942286491394043,
				-1.395668387413025
			],
			"type":"VEC3"
		},
		{
			"bufferView":41,
			"componentType":5126,
			"count":1152,
			"type":"VEC3"
		},
		{
			"bufferView":42,
			"componentType":5126,
			"count":1152,
			"type":"VEC2"
		},
		{
			"bufferView":43,
			"componentType":5123,
			"count":6876,
			"type":"SCALAR"
		},
		{
			"bufferView":44,
			"componentType":5126,
			"count":12,
			"max":[
				0.00987154245376587,
				-1.7448441982269287,
				1.6216630935668945
			],
			"min":[
				-1.656014084815979,
				-1.7448444366455078,
				-1.6905180215835571
			],
			"type":"VEC3"
		},
		{
			"bufferView":45,
			"componentType":5126,
			"count":12,
			"type":"VEC3"
		},
		{
			"bufferView":46,
			"componentType":5126,
			"count":12,
			"type":"VEC2"
		},
		{
			"bufferView":47,
			"componentType":5123,
			"count":18,
			"type":"SCALAR"
		}
	],
	"bufferViews":[
		{
			"buffer":0,
			"byteLength":6912,
			"byteOffset":0,
			"target":34962
		},
		{
			"buffer":0,
			"byteLength":6912,
			"byteOffset":6912,
			"target":34962
		},
		{
			"buffer":0,
			"byteLength":4608,
			"byteOffset":13824,
			"target":34962
		},
		{
			"buffer":0,
			"byteLength":5400,
			"byteOffset":18432,
			"target":34963
		},
		{
			"buffer":0,
			"byteLength":3744,
			"byteOffset":23832,
			"target":34962
		},
		{
			"buffer":0,
			"byteLength":3744,
			"byteOffset":27576,
			"target":34962
		},
		{
			"buffer":0,
			"byteLength":2496,
			"byteOffset":31320,
			"target":34962
		},
		{
			"buffer":0,
			"byteLength":1680,
			"byteOffset":33816,
			"target":34963
		},
		{
			"buffer":0,
			"byteLength":3264,
			"byteOffset":35496,
			"target":34962
		},
		{
			"buffer":0,
			"byteLength":3264,
			"byteOffset":38760,
			"target":34962
		},
		{
			"buffer":0,
			"byteLength":2176,
			"byteOffset":42024,
			"target":34962
		},
		{
			"buffer":0,
			"byteLength":3072,
			"byteOffset":44200,
			"target":34963
		},
		{
			"buffer":0,
			"byteLength":3264,
			"byteOffset":47272,
			"target":34962
		},
		{
			"buffer":0,
			"byteLength":3264,
			"byteOffset":50536,
			"target":34962
		},
		{
			"buffer":0,
			"byteLength":2176,
			"byteOffset":53800,
			"target":34962
		},
		{
			"buffer":0,
			"byteLength":3072,
			"byteOffset":55976,
			"target":34963
		},
		{
			"buffer":0,
			"byteLength":69840,
			"byteOffset":59048,
			"target":34962
		},
		{
			"buffer":0,
			"byteLength":69840,
			"byteOffset":128888,
			"target":34962
		},
		{
			"buffer":0,
			"byteLength":46560,
			"byteOffset":198728,
			"target":34962
		},
		{
			"buffer":0,
			"byteLength":18792,
			"byteOffset":245288,
			"target":34963
		},
		{
			"buffer":0,
			"byteLength":11616,
			"byteOffset":264080,
			"target":34962
		},
		{
			"buffer":0,
			"byteLength":11616,
			"byteOffset":275696,
			"target":34962
		},
		{
			"buffer":0,
			"byteLength":7744,
			"byteOffset":287312,
			"target":34962
		},
		{
			"buffer":0,
			"byteLength":3072,
			"byteOffset":295056,
			"target":34963
		},
		{
			"buffer":0,
			"byteLength":384,
			"byteOffset":298128,
			"target":34962
		},
		{
			"buffer":0,
			"byteLength":384,
			"byteOffset":298512,
			"target":34962
		},
		{
			"buffer":0,
			"byteLength":256,
			"byteOffset":298896,
			"target":34962
		},
		{
			"buffer":0,
			"byteLength":180,
			"byteOffset":299152,
			"target":34963
		},
		{
			"buffer":0,
			"byteLength":11052,
			"byteOffset":299332,
			"target":34962
		},
		{
			"buffer":0,
			"byteLength":11052,
			"byteOffset":310384,
			"target":34962
		},
		{
			"buffer":0,
			"byteLength":7368,
			"byteOffset":321436,
			"target":34962
		},
		{
			"buffer":0,
			"byteLength":10872,
			"byteOffset":328804,
			"target":34963
		},
		{
			"buffer":0,
			"byteLength":9792,
			"byteOffset":339676,
			"target":34962
		},
		{
			"buffer":0,
			"byteLength":9792,
			"byteOffset":349468,
			"target":34962
		},
		{
			"buffer":0,
			"byteLength":6528,
			"byteOffset":359260,
			"target":34962
		},
		{
			"buffer":0,
			"byteLength":9216,
			"byteOffset":365788,
			"target":34963
		},
		{
			"buffer":0,
			"byteLength":9792,
			"byteOffset":375004,
			"target":34962
		},
		{
			"buffer":0,
			"byteLength":9792,
			"byteOffset":384796,
			"target":34962
		},
		{
			"buffer":0,
			"byteLength":6528,
			"byteOffset":394588,
			"target":34962
		},
		{
			"buffer":0,
			"byteLength":9216,
			"byteOffset":401116,
			"target":34963
		},
		{
			"buffer":0,
			"byteLength":13824,
			"byteOffset":410332,
			"target":34962
		},
		{
			"buffer":0,
			"byteLength":13824,
			"byteOffset":424156,
			"target":34962
		},
		{
			"buffer":0,
			"byteLength":9216,
			"byteOffset":437980,
			"target":34962
		},
		{
			"buffer":0,
			"byteLength":13752,
			"byteOffset":447196,
			"target":34963
		},
		{
			"buffer":0,
			"byteLength":144,
			"byteOffset":460948,
			"target":34962
		},
		{
			"buffer":0,
			"byteLength":144,
			"byteOffset":461092,
			"target":34962
		},
		{
			"buffer":0,
			"byteLength":96,
			"byteOffset":461236,
			"target":34962
		},
		{
			"buffer":0,
			"byteLength":36,
			"byteOffset":461332,
			"target":34963
		}
	],
	"buffers":[
		{
			"byteLength":461368,
			"uri":"data:application/octet-stream;base64,"
		}
	]
}
