{
	"asset":{
		"generator":"Khronos glTF Blender I/O v3.6.27",
		"version":"2.0"
	},
	"extensionsUsed":[
		"KHR_materials_specular",
		"KHR_materials_ior"
	],
	"scene":0,
	"scenes":[
		{
			"name":"Scene",
			"nodes":[
				0,
				1,
				2,
				3,
				4,
				5,
				6,
				7,
				8,
				9,
				10,
				11,
				12,
				13
			]
		}
	],
	"nodes":[
		{
			"mesh":0,
			"name":"Jade"
		},
		{
			"mesh":1,
			"name":"Red"
		},
		{
			"mesh":2,
			"name":"Tonalli 16/20",
			"rotation":[
				0,
				-0.005420435685664415,
				0,
				0.99998539686203
			],
			"translation":[
				0,
				0.20000045001506805,
				0
			]
		},
		{
			"mesh":3,
			"name":"Tonalli",
			"translation":[
				0,
				0.20000045001506805,
				0
			]
		},
		{
			"mesh":4,
			"name":"Sky",
			"translation":[
				3.552716225385666e-05,
				0,
				-6.868256605230272e-06
			]
		},
		{
			"mesh":5,
			"name":"Center",
			"translation":[
				3.552716225385666e-05,
				0,
				-6.868256605230272e-06
			]
		},
		{
			"mesh":6,
			"name":"Circle outside"
		},
		{
			"mesh":7,
			"name":"Rec 1/3",
			"rotation":[
				0,
				0.3826834559440613,
				0,
				0.9238795638084412
			],
			"scale":[
				1.4999998807907104,
				1,
				1.100000023841858
			],
			"translation":[
				1.140000820159912,
				2.6866793632507324e-05,
				-1.1400015354156494
			]
		},
		{
			"mesh":8,
			"name":"Rec 2/3",
			"rotation":[
				0,
				0.3826834559440613,
				0,
				0.9238795638084412
			],
			"scale":[
				1.4999998807907104,
				1,
				1.100000023841858
			],
			"translation":[
				1.140000820159912,
				2.6866793632507324e-05,
				-1.1400015354156494
			]
		},
		{
			"mesh":9,
			"name":"Rec 3/3.002 Canvas",
			"rotation":[
				0,
				0.3826834559440613,
				0,
				0.9238795638084412
			],
			"scale":[
				1.4999998807907104,
				1,
				1.100000023841858
			],
			"translation":[
				1.140000820159912,
				2.6866793632507324e-05,
				-1.1400015354156494
			]
		},
		{
			"mesh":10,
			"name":"Rec 3/3.002 Canvas.001",
			"rotation":[
				0,
				0.3826834559440613,
				0,
				0.9238795638084412
			],
			"scale":[
				1.4999998807907104,
				1,
				1.100000023841858
			],
			"translation":[
				1.140000820159912,
				2.6866793632507324e-05,
				-1.1400015354156494
			]
		},
		{
			"mesh":11,
			"name":"Chalchi outer",
			"scale":[
				0.9297364950180054,
				1.9921194314956665,
				0.9297364950180054
			],
			"translation":[
				1.6071549654006958,
				-0.20000000298023224,
				-1.6108297109603882
			]
		},
		{
			"mesh":12,
			"name":"Chalci inner",
			"scale":[
				0.9297364950180054,
				1.985009789466858,
				0.9297364950180054
			],
			"translation":[
				1.6071549654006958,
				-0.20000000298023224,
				-1.6108297109603882
			]
		},
		{
			"mesh":13,
			"name":"Rounded border",
			"scale":[
				0.9992692470550537,
				0.9992692470550537,
				0.9992692470550537
			],
			"translation":[
				0.20044076442718506,
				0.07494519650936127,
				-1.0755040645599365
			]
		}
	],
	"materials":[
		{
			"doubleSided":true,
			"extensions":{
				"KHR_materials_specular":{
					"specularColorFactor":[
						0.04038464069366455,
						0.04038464069366455,
						0.04038464069366455
					]
				},
				"KHR_materials_ior":{
					"ior":0
				}
			},
			"name":"Jade",
			"pbrMetallicRoughness":{
				"baseColorFactor":[
					0.00998742412775755,
					0.19098326563835144,
					0.028470119461417198,
					1
				],
				"metallicFactor":0.4386928677558899,
				"roughnessFactor":0.12019228935241699
			}
		},
		{
			"doubleSided":true,
			"extensions":{
				"KHR_materials_specular":{
					"specularColorFactor":[
						0.77821069340726,
						0.77821069340726,
						0.77821069340726
					]
				},
				"KHR_materials_ior":{
					"ior":1.4500000476837158
				}
			},
			"name":"Sun",
			"pbrMetallicRoughness":{
				"baseColorFactor":[
					0.7144439816474915,
					0,
					0.039258524775505066,
					1
				],
				"metallicFactor":0.8433311581611633,
				"roughnessFactor":0.42391306161880493
			}
		},
		{
			"doubleSided":true,
			"extensions":{
				"KHR_materials_specular":{
					"specularColorFactor":[
						1.2569978438462994,
						1.2569978438462994,
						1.2569978438462994
					]
				},
				"KHR_materials_ior":{
					"ior":1.4500000476837158
				}
			},
			"name":"White",
			"pbrMetallicRoughness":{
				"baseColorFactor":[
					1,
					0.9896575212478638,
					0.7989807724952698,
					1
				],
				"metallicFactor":0,
				"roughnessFactor":0.4615384340286255
			}
		},
		{
			"doubleSided":true,
			"name":"Sky",
			"pbrMetallicRoughness":{
				"baseColorFactor":[
					0.07458598166704178,
					0.28998863697052,
					0.7304612398147583,
					1
				],
				"metallicFactor":0,
				"roughnessFactor":0.5
			}
		},
		{
			"doubleSided":true,
			"name":"Material.009",
			"pbrMetallicRoughness":{
				"baseColorFactor":[
					1,
					0.5069183111190796,
					0,
					1
				],
				"metallicFactor":0.2788461446762085,
				"roughnessFactor":0.5
			}
		}
	],
	"meshes":[
		{
			"name":"Circle.001",
			"primitives":[
				{
					"attributes":{
						"POSITION":0,
						"NORMAL":1,
						"TEXCOORD_0":2
					},
					"indices":3,
					"material":0
				}
			]
		},
		{
			"name":"Circle.003",
			"primitives":[
				{
					"attributes":{
						"POSITION":4,
						"NORMAL":5,
						"TEXCOORD_0":6
					},
					"indices":3,
					"material":1
				}
			]
		},
		{
			"name":"Circle.007",
			"primitives":[
				{
					"attributes":{
						"POSITION":7,
						"NORMAL":8,
						"TEXCOORD_0":9
					},
					"indices":10,
					"material":2
				}
			]
		},
		{
			"name":"Circle.009",
			"primitives":[
				{
					"attributes":{
						"POSITION":11,
						"NORMAL":12,
						"TEXCOORD_0":13
					},
					"indices":14,
					"material":2
				}
			]
		},
		{
			"name":"Circle.008",
			"primitives":[
				{
					"attributes":{
						"POSITION":15,
						"NORMAL":16,
						"TEXCOORD_0":17
					},
					"indices":3,
					"material":3
				}
			]
		},
		{
			"name":"Circle.010",
			"primitives":[
				{
					"attributes":{
						"POSITION":18,
						"NORMAL":19,
						"TEXCOORD_0":20
					},
					"indices":21,
					"material":1
				}
			]
		},
		{
			"name":"Circle.005",
			"primitives":[
				{
					"attributes":{
						"POSITION":22,
						"NORMAL":23,
						"TEXCOORD_0":24
					},
					"indices":25,
					"material":4
				}
			]
		},
		{
			"name":"Plane.004",
			"primitives":[
				{
					"attributes":{
						"POSITION":26,
						"NORMAL":27,
						"TEXCOORD_0":28
					},
					"indices":29,
					"material":0
				}
			]
		},
		{
			"name":"Plane.005",
			"primitives":[
				{
					"attributes":{
						"POSITION":30,
						"NORMAL":31,
						"TEXCOORD_0":32
					},
					"indices":33,
					"material":1
				}
			]
		},
		{
			"name":"Plane.009",
			"primitives":[
				{
					"attributes":{
						"POSITION":34,
						"NORMAL":35,
						"TEXCOORD_0":36
					},
					"indices":37,
					"material":2
				}
			]
		},
		{
			"name":"Plane.002",
			"primitives":[
				{
					"attributes":{
						"POSITION":38,
						"NORMAL":39,
						"TEXCOORD_0":40
					},
					"indices":41,
					"material":2
				}
			]
		},
		{
			"name":"Circle.002",
			"primitives":[
				{
					"attributes":{
						"POSITION":42,
						"NORMAL":43,
						"TEXCOORD_0":44
					},
					"indices":45,
					"material":2
				}
			]
		},
		{
			"name":"Circle.006",
			"primitives":[
				{
					"attributes":{
						"POSITION":46,
						"NORMAL":47,
						"TEXCOORD_0":48
					},
					"indices":49,
					"material":2
				}
			]
		},
		{
			"name":"Cube.002",
			"primitives":[
				{
					"attributes":{
						"POSITION":50,
						"NORMAL":51,
						"TEXCOORD_0":52
					},
					"indices":53,
					"material":1
				}
			]
		}
	],
	"accessors":[
		{
			"bufferView":0,
			"componentType":5126,
			"count":512,
			"max":[
				1,
				0.10000000149011612,
				1
			],
			"min":[
				-1,
				0,
				-1
			],
			"type":"VEC3"
		},
		{
			"bufferView":1,
			"componentType":5126,
			"count":512,
			"type":"VEC3"
		},
		{
			"bufferView":2,
			"componentType":5126,
			"count":512,
			"type":"VEC2"
		},
		{
			"bufferView":3,
			"componentType":5123,
			"count":3072,
			"type":"SCALAR"
		},
		{
			"bufferView":4,
			"componentType":5126,
			"count":512,
			"max":[
				0.75,
				0.20000000298023224,
				0.75
			],
			"min":[
				-0.75,
				0,
				-0.75
			],
			"type":"VEC3"
		},
		{
			"bufferView":5,
			"componentType":5126,
			"count":512,
			"type":"VEC3"
		},
		{
			"bufferView":6,
			"componentType":5126,
			"count":512,
			"type":"VEC2"
		},
		{
			"bufferView":7,
			"componentType":5126,
			"count":1280,
			"max":[
				1.1390990018844604,
				-0.09847800433635712,
				1.1391022205352783
			],
			"min":[
				-1.139103651046753,
				-0.19847802817821503,
				-1.139100432395935
			],
			"type":"VEC3"
		},
		{
			"bufferView":8,
			"componentType":5126,
			"count":1280,
			"type":"VEC3"
		},
		{
			"bufferView":9,
			"componentType":5126,
			"count":1280,
			"type":"VEC2"
		},
		{
			"bufferView":10,
			"componentType":5123,
			"count":7488,
			"type":"SCALAR"
		},
		{
			"bufferView":11,
			"componentType":5126,
			"count":576,
			"max":[
				1.2499967813491821,
				-0.09847798198461533,
				1.25
			],
			"min":[
				-1.2500014305114746,
				-0.19847802817821503,
				-1.2499982118606567
			],
			"type":"VEC3"
		},
		{
			"bufferView":12,
			"componentType":5126,
			"count":576,
			"type":"VEC3"
		},
		{
			"bufferView":13,
			"componentType":5126,
			"count":576,
			"type":"VEC2"
		},
		{
			"bufferView":14,
			"componentType":5123,
			"count":3408,
			"type":"SCALAR"
		},
		{
			"bufferView":15,
			"componentType":5126,
			"count":512,
			"max":[
				0.5,
				0.20000000298023224,
				0.5
			],
			"min":[
				-0.5,
				0,
				-0.5
			],
			"type":"VEC3"
		},
		{
			"bufferView":16,
			"componentType":5126,
			"count":512,
			"type":"VEC3"
		},
		{
			"bufferView":17,
			"componentType":5126,
			"count":512,
			"type":"VEC2"
		},
		{
			"bufferView":18,
			"componentType":5126,
			"count":256,
			"max":[
				0.2990322709083557,
				0.2000001221895218,
				0.2990322709083557
			],
			"min":[
				-0.2990322709083557,
				0,
				-0.2990322709083557
			],
			"type":"VEC3"
		},
		{
			"bufferView":19,
			"componentType":5126,
			"count":256,
			"type":"VEC3"
		},
		{
			"bufferView":20,
			"componentType":5126,
			"count":256,
			"type":"VEC2"
		},
		{
			"bufferView":21,
			"componentType":5123,
			"count":1524,
			"type":"SCALAR"
		},
		{
			"bufferView":22,
			"componentType":5126,
			"count":282,
			"max":[
				1.9988831281661987,
				0,
				1.9955337047576904
			],
			"min":[
				-1.9988831281661987,
				-0.20000000298023224,
				-2
			],
			"type":"VEC3"
		},
		{
			"bufferView":23,
			"componentType":5126,
			"count":282,
			"type":"VEC3"
		},
		{
			"bufferView":24,
			"componentType":5126,
			"count":282,
			"type":"VEC2"
		},
		{
			"bufferView":25,
			"componentType":5123,
			"count":552,
			"type":"SCALAR"
		},
		{
			"bufferView":26,
			"componentType":5126,
			"count":704,
			"max":[
				-0.08146899938583374,
				0.10000002384185791,
				1.3545489311218262
			],
			"min":[
				-2.068138837814331,
				0,
				-1.3545459508895874
			],
			"type":"VEC3"
		},
		{
			"bufferView":27,
			"componentType":5126,
			"count":704,
			"type":"VEC3"
		},
		{
			"bufferView":28,
			"componentType":5126,
			"count":704,
			"type":"VEC2"
		},
		{
			"bufferView":29,
			"componentType":5123,
			"count":4176,
			"type":"SCALAR"
		},
		{
			"bufferView":30,
			"componentType":5126,
			"count":704,
			"max":[
				0.08519768714904785,
				0.10000002384185791,
				1.5818216800689697
			],
			"min":[
				-2.2348055839538574,
				0,
				-1.58181893825531
			],
			"type":"VEC3"
		},
		{
			"bufferView":31,
			"componentType":5126,
			"count":704,
			"type":"VEC3"
		},
		{
			"bufferView":32,
			"componentType":5126,
			"count":704,
			"type":"VEC2"
		},
		{
			"bufferView":33,
			"componentType":5123,
			"count":4176,
			"type":"SCALAR"
		},
		{
			"bufferView":34,
			"componentType":5126,
			"count":6608,
			"max":[
				0.2580660581588745,
				0.10000002384185791,
				1.8175512552261353
			],
			"min":[
				-2.4076738357543945,
				0,
				-1.817548394203186
			],
			"type":"VEC3"
		},
		{
			"bufferView":35,
			"componentType":5126,
			"count":6608,
			"type":"VEC3"
		},
		{
			"bufferView":36,
			"componentType":5126,
			"count":6608,
			"type":"VEC2"
		},
		{
			"bufferView":37,
			"componentType":5123,
			"count":9864,
			"type":"SCALAR"
		},
		{
			"bufferView":38,
			"componentType":5126,
			"count":5072,
			"max":[
				0.21453723311424255,
				0.10000002384185791,
				1.7581937313079834
			],
			"min":[
				-2.364145040512085,
				0,
				-1.7581907510757446
			],
			"type":"VEC3"
		},
		{
			"bufferView":39,
			"componentType":5126,
			"count":5072,
			"type":"VEC3"
		},
		{
			"bufferView":40,
			"componentType":5126,
			"count":5072,
			"type":"VEC2"
		},
		{
			"bufferView":41,
			"componentType":5123,
			"count":7680,
			"type":"SCALAR"
		},
		{
			"bufferView":42,
			"componentType":5126,
			"count":1600,
			"max":[
				0.3039540648460388,
				0.10000000149011612,
				3.76513409614563
			],
			"min":[
				-3.7611799240112305,
				0,
				-0.30000001192092896
			],
			"type":"VEC3"
		},
		{
			"bufferView":43,
			"componentType":5126,
			"count":1600,
			"type":"VEC3"
		},
		{
			"bufferView":44,
			"componentType":5126,
			"count":1600,
			"type":"VEC2"
		},
		{
			"bufferView":45,
			"componentType":5123,
			"count":9600,
			"type":"SCALAR"
		},
		{
			"bufferView":46,
			"componentType":5126,
			"count":800,
			"max":[
				0.15276184678077698,
				0.10000007599592209,
				3.6139419078826904
			],
			"min":[
				-3.609987735748291,
				0,
				-0.14880779385566711
			],
			"type":"VEC3"
		},
		{
			"bufferView":47,
			"componentType":5126,
			"count":800,
			"type":"VEC3"
		},
		{
			"bufferView":48,
			"componentType":5126,
			"count":800,
			"type":"VEC2"
		},
		{
			"bufferView":49,
			"componentType":5123,
			"count":4752,
			"type":"SCALAR"
		},
		{
			"bufferView":50,
			"componentType":5126,
			"count":13640,
			"max":[
				1.7897504568099976,
				0.12514635920524597,
				3.066568374633789
			],
			"min":[
				-2.1908068656921387,
				-0.07500001043081284,
				-0.9140244722366333
			],
			"type":"VEC3"
		},
		{
			"bufferView":51,
			"componentType":5126,
			"count":13640,
			"type":"VEC3"
		},
		{
			"bufferView":52,
			"componentType":5126,
			"count":13640,
			"type":"VEC2"
		},
		{
			"bufferView":53,
			"componentType":5123,
			"count":21888,
			"type":"SCALAR"
		}
	],
	"bufferViews":[
		{
			"buffer":0,
			"byteLength":6144,
			"byteOffset":0,
			"target":34962
		},
		{
			"buffer":0,
			"byteLength":6144,
			"byteOffset":6144,
			"target":34962
		},
		{
			"buffer":0,
			"byteLength":4096,
			"byteOffset":12288,
			"target":34962
		},
		{
			"buffer":0,
			"byteLength":6144,
			"byteOffset":16384,
			"target":34963
		},
		{
			"buffer":0,
			"byteLength":6144,
			"byteOffset":22528,
			"target":34962
		},
		{
			"buffer":0,
			"byteLength":6144,
			"byteOffset":28672,
			"target":34962
		},
		{
			"buffer":0,
			"byteLength":4096,
			"byteOffset":34816,
			"target":34962
		},
		{
			"buffer":0,
			"byteLength":15360,
			"byteOffset":38912,
			"target":34962
		},
		{
			"buffer":0,
			"byteLength":15360,
			"byteOffset":54272,
			"target":34962
		},
		{
			"buffer":0,
			"byteLength":10240,
			"byteOffset":69632,
			"target":34962
		},
		{
			"buffer":0,
			"byteLength":14976,
			"byteOffset":79872,
			"target":34963
		},
		{
			"buffer":0,
			"byteLength":6912,
			"byteOffset":94848,
			"target":34962
		},
		{
			"buffer":0,
			"byteLength":6912,
			"byteOffset":101760,
			"target":34962
		},
		{
			"buffer":0,
			"byteLength":4608,
			"byteOffset":108672,
			"target":34962
		},
		{
			"buffer":0,
			"byteLength":6816,
			"byteOffset":113280,
			"target":34963
		},
		{
			"buffer":0,
			"byteLength":6144,
			"byteOffset":120096,
			"target":34962
		},
		{
			"buffer":0,
			"byteLength":6144,
			"byteOffset":126240,
			"target":34962
		},
		{
			"buffer":0,
			"byteLength":4096,
			"byteOffset":132384,
			"target":34962
		},
		{
			"buffer":0,
			"byteLength":3072,
			"byteOffset":136480,
			"target":34962
		},
		{
			"buffer":0,
			"byteLength":3072,
			"byteOffset":139552,
			"target":34962
		},
		{
			"buffer":0,
			"byteLength":2048,
			"byteOffset":142624,
			"target":34962
		},
		{
			"buffer":0,
			"byteLength":3048,
			"byteOffset":144672,
			"target":34963
		},
		{
			"buffer":0,
			"byteLength":3384,
			"byteOffset":147720,
			"target":34962
		},
		{
			"buffer":0,
			"byteLength":3384,
			"byteOffset":151104,
			"target":34962
		},
		{
			"buffer":0,
			"byteLength":2256,
			"byteOffset":154488,
			"target":34962
		},
		{
			"buffer":0,
			"byteLength":1104,
			"byteOffset":156744,
			"target":34963
		},
		{
			"buffer":0,
			"byteLength":8448,
			"byteOffset":157848,
			"target":34962
		},
		{
			"buffer":0,
			"byteLength":8448,
			"byteOffset":166296,
			"target":34962
		},
		{
			"buffer":0,
			"byteLength":5632,
			"byteOffset":174744,
			"target":34962
		},
		{
			"buffer":0,
			"byteLength":8352,
			"byteOffset":180376,
			"target":34963
		},
		{
			"buffer":0,
			"byteLength":8448,
			"byteOffset":188728,
			"target":34962
		},
		{
			"buffer":0,
			"byteLength":8448,
			"byteOffset":197176,
			"target":34962
		},
		{
			"buffer":0,
			"byteLength":5632,
			"byteOffset":205624,
			"target":34962
		},
		{
			"buffer":0,
			"byteLength":8352,
			"byteOffset":211256,
			"target":34963
		},
		{
			"buffer":0,
			"byteLength":79296,
			"byteOffset":219608,
			"target":34962
		},
		{
			"buffer":0,
			"byteLength":79296,
			"byteOffset":298904,
			"target":34962
		},
		{
			"buffer":0,
			"byteLength":52864,
			"byteOffset":378200,
			"target":34962
		},
		{
			"buffer":0,
			"byteLength":19728,
			"byteOffset":431064,
			"target":34963
		},
		{
			"buffer":0,
			"byteLength":60864,
			"byteOffset":450792,
			"target":34962
		},
		{
			"buffer":0,
			"byteLength":60864,
			"byteOffset":511656,
			"target":34962
		},
		{
			"buffer":0,
			"byteLength":40576,
			"byteOffset":572520,
			"target":34962
		},
		{
			"buffer":0,
			"byteLength":15360,
			"byteOffset":613096,
			"target":34963
		},
		{
			"buffer":0,
			"byteLength":19200,
			"byteOffset":628456,
			"target":34962
		},
		{
			"buffer":0,
			"byteLength":19200,
			"byteOffset":647656,
			"target":34962
		},
		{
			"buffer":0,
			"byteLength":12800,
			"byteOffset":666856,
			"target":34962
		},
		{
			"buffer":0,
			"byteLength":19200,
			"byteOffset":679656,
			"target":34963
		},
		{
			"buffer":0,
			"byteLength":9600,
			"byteOffset":698856,
			"target":34962
		},
		{
			"buffer":0,
			"byteLength":9600,
			"byteOffset":708456,
			"target":34962
		},
		{
			"buffer":0,
			"byteLength":6400,
			"byteOffset":718056,
			"target":34962
		},
		{
			"buffer":0,
			"byteLength":9504,
			"byteOffset":724456,
			"target":34963
		},
		{
			"buffer":0,
			"byteLength":163680,
			"byteOffset":733960,
			"target":34962
		},
		{
			"buffer":0,
			"byteLength":163680,
			"byteOffset":897640,
			"target":34962
		},
		{
			"buffer":0,
			"byteLength":109120,
			"byteOffset":1061320,
			"target":34962
		},
		{
			"buffer":0,
			"byteLength":43776,
			"byteOffset":1170440,
			"target":34963
		}
	],
	"buffers":[
		{
			"byteLength":1214216,
			"uri":"data:application/octet-stream;base64,"
		}
	]
}
