{
	"asset":{
		"generator":"Khronos glTF Blender I/O v3.6.27",
		"version":"2.0"
	},
	"scene":0,
	"scenes":[
		{
			"name":"Scene",
			"nodes":[
				0,
				1,
				2,
				3
			]
		}
	],
	"nodes":[
		{
			"mesh":0,
			"name":"Wood",
			"rotation":[
				0,
				-1,
				0,
				7.549790126404332e-08
			],
			"translation":[
				0.005688190460205078,
				0,
				0.7271178960800171
			]
		},
		{
			"mesh":1,
			"name":"Tecpatl",
			"rotation":[
				0,
				-1,
				0,
				7.549790126404332e-08
			],
			"translation":[
				0.005688190460205078,
				-5.960464113741182e-05,
				0.088675856590271
			]
		},
		{
			"mesh":2,
			"name":"inner",
			"translation":[
				0.005688190460205078,
				0,
				1.680385708808899
			]
		},
		{
			"mesh":3,
			"name":"outer",
			"translation":[
				0.005688190460205078,
				0,
				1.680385708808899
			]
		}
	],
	"materials":[
		{
			"doubleSided":true,
			"name":"Red",
			"pbrMetallicRoughness":{
				"baseColorFactor":[
					0.8000000715255737,
					0.0172499381005764,
					0.03430316224694252,
					1
				],
				"metallicFactor":0,
				"roughnessFactor":0.5
			}
		},
		{
			"doubleSided":true,
			"name":"Material.002",
			"pbrMetallicRoughness":{
				"baseColorFactor":[
					0.800000011920929,
					0.800000011920929,
					0.800000011920929,
					1
				],
				"metallicFactor":0,
				"roughnessFactor":0.5
			}
		},
		{
			"doubleSided":true,
			"name":"White",
			"pbrMetallicRoughness":{
				"metallicFactor":0,
				"roughnessFactor":0.5
			}
		}
	],
	"meshes":[
		{
			"name":"Plane",
			"primitives":[
				{
					"attributes":{
						"POSITION":0,
						"NORMAL":1,
						"TEXCOORD_0":2
					},
					"indices":3,
					"material":0
				},
				{
					"attributes":{
						"POSITION":4,
						"NORMAL":5,
						"TEXCOORD_0":6
					},
					"indices":7,
					"material":1
				}
			]
		},
		{
			"name":"Plane.001",
			"primitives":[
				{
					"attributes":{
						"POSITION":8,
						"NORMAL":9,
						"TEXCOORD_0":10
					},
					"indices":11,
					"material":2
				}
			]
		},
		{
			"name":"Circle.005",
			"primitives":[
				{
					"attributes":{
						"POSITION":12,
						"NORMAL":13,
						"TEXCOORD_0":14
					},
					"indices":15,
					"material":2
				}
			]
		},
		{
			"name":"Circle.003",
			"primitives":[
				{
					"attributes":{
						"POSITION":16,
						"NORMAL":17,
						"TEXCOORD_0":18
					},
					"indices":19,
					"material":2
				},
				{
					"attributes":{
						"POSITION":20,
						"NORMAL":21,
						"TEXCOORD_0":22
					},
					"indices":23,
					"material":0
				}
			]
		}
	],
	"accessors":[
		{
			"bufferView":0,
			"componentType":5126,
			"count":228,
			"max":[
				0.11700037866830826,
				0.20000000298023224,
				0.5
			],
			"min":[
				-0.1170005276799202,
				0,
				-0.44999998807907104
			],
			"type":"VEC3"
		},
		{
			"bufferView":1,
			"componentType":5126,
			"count":228,
			"type":"VEC3"
		},
		{
			"bufferView":2,
			"componentType":5126,
			"count":228,
			"type":"VEC2"
		},
		{
			"bufferView":3,
			"componentType":5123,
			"count":348,
			"type":"SCALAR"
		},
		{
			"bufferView":4,
			"componentType":5126,
			"count":220,
			"max":[
				0.11700038611888885,
				0.20000000298023224,
				0.25
			],
			"min":[
				-0.1170005202293396,
				0,
				-0.5
			],
			"type":"VEC3"
		},
		{
			"bufferView":5,
			"componentType":5126,
			"count":220,
			"type":"VEC3"
		},
		{
			"bufferView":6,
			"componentType":5126,
			"count":220,
			"type":"VEC2"
		},
		{
			"bufferView":7,
			"componentType":5123,
			"count":324,
			"type":"SCALAR"
		},
		{
			"bufferView":8,
			"componentType":5126,
			"count":1072,
			"max":[
				0.23999983072280884,
				0.15000000596046448,
				0.7600072622299194
			],
			"min":[
				-0.24000020325183868,
				0,
				-0.38844209909439087
			],
			"type":"VEC3"
		},
		{
			"bufferView":9,
			"componentType":5126,
			"count":1072,
			"type":"VEC3"
		},
		{
			"bufferView":10,
			"componentType":5126,
			"count":1072,
			"type":"VEC2"
		},
		{
			"bufferView":11,
			"componentType":5123,
			"count":1596,
			"type":"SCALAR"
		},
		{
			"bufferView":12,
			"componentType":5126,
			"count":88,
			"max":[
				0.24879035353660583,
				0.20000021159648895,
				0
			],
			"min":[
				-0.24879035353660583,
				0,
				-0.24879035353660583
			],
			"type":"VEC3"
		},
		{
			"bufferView":13,
			"componentType":5126,
			"count":88,
			"type":"VEC3"
		},
		{
			"bufferView":14,
			"componentType":5126,
			"count":88,
			"type":"VEC2"
		},
		{
			"bufferView":15,
			"componentType":5123,
			"count":504,
			"type":"SCALAR"
		},
		{
			"bufferView":16,
			"componentType":5126,
			"count":272,
			"max":[
				0.5,
				0.20000000298023224,
				0
			],
			"min":[
				-0.5,
				0,
				-0.5
			],
			"type":"VEC3"
		},
		{
			"bufferView":17,
			"componentType":5126,
			"count":272,
			"type":"VEC3"
		},
		{
			"bufferView":18,
			"componentType":5126,
			"count":272,
			"type":"VEC2"
		},
		{
			"bufferView":19,
			"componentType":5123,
			"count":1536,
			"type":"SCALAR"
		},
		{
			"bufferView":20,
			"componentType":5126,
			"count":178,
			"max":[
				0.5,
				0.20000000298023224,
				0.5
			],
			"min":[
				-0.5,
				0,
				-4.656612873077393e-10
			],
			"type":"VEC3"
		},
		{
			"bufferView":21,
			"componentType":5126,
			"count":178,
			"type":"VEC3"
		},
		{
			"bufferView":22,
			"componentType":5126,
			"count":178,
			"type":"VEC2"
		},
		{
			"bufferView":23,
			"componentType":5123,
			"count":969,
			"type":"SCALAR"
		}
	],
	"bufferViews":[
		{
			"buffer":0,
			"byteLength":2736,
			"byteOffset":0,
			"target":34962
		},
		{
			"buffer":0,
			"byteLength":2736,
			"byteOffset":2736,
			"target":34962
		},
		{
			"buffer":0,
			"byteLength":1824,
			"byteOffset":5472,
			"target":34962
		},
		{
			"buffer":0,
			"byteLength":696,
			"byteOffset":7296,
			"target":34963
		},
		{
			"buffer":0,
			"byteLength":2640,
			"byteOffset":7992,
			"target":34962
		},
		{
			"buffer":0,
			"byteLength":2640,
			"byteOffset":10632,
			"target":34962
		},
		{
			"buffer":0,
			"byteLength":1760,
			"byteOffset":13272,
			"target":34962
		},
		{
			"buffer":0,
			"byteLength":648,
			"byteOffset":15032,
			"target":34963
		},
		{
			"buffer":0,
			"byteLength":12864,
			"byteOffset":15680,
			"target":34962
		},
		{
			"buffer":0,
			"byteLength":12864,
			"byteOffset":28544,
			"target":34962
		},
		{
			"buffer":0,
			"byteLength":8576,
			"byteOffset":41408,
			"target":34962
		},
		{
			"buffer":0,
			"byteLength":3192,
			"byteOffset":49984,
			"target":34963
		},
		{
			"buffer":0,
			"byteLength":1056,
			"byteOffset":53176,
			"target":34962
		},
		{
			"buffer":0,
			"byteLength":1056,
			"byteOffset":54232,
			"target":34962
		},
		{
			"buffer":0,
			"byteLength":704,
			"byteOffset":55288,
			"target":34962
		},
		{
			"buffer":0,
			"byteLength":1008,
			"byteOffset":55992,
			"target":34963
		},
		{
			"buffer":0,
			"byteLength":3264,
			"byteOffset":57000,
			"target":34962
		},
		{
			"buffer":0,
			"byteLength":3264,
			"byteOffset":60264,
			"target":34962
		},
		{
			"buffer":0,
			"byteLength":2176,
			"byteOffset":63528,
			"target":34962
		},
		{
			"buffer":0,
			"byteLength":3072,
			"byteOffset":65704,
			"target":34963
		},
		{
			"buffer":0,
			"byteLength":2136,
			"byteOffset":68776,
			"target":34962
		},
		{
			"buffer":0,
			"byteLength":2136,
			"byteOffset":70912,
			"target":34962
		},
		{
			"buffer":0,
			"byteLength":1424,
			"byteOffset":73048,
			"target":34962
		},
		{
			"buffer":0,
			"byteLength":1938,
			"byteOffset":74472,
			"target":34963
		}
	],
	"buffers":[
		{
			"byteLength":76412,
			"uri":"data:application/octet-stream;base64,"
		}
	]
}
