{
	"asset":{
		"generator":"Khronos glTF Blender I/O v3.6.27",
		"version":"2.0"
	},
	"extensionsUsed":[
		"KHR_materials_specular",
		"KHR_materials_ior"
	],
	"scene":0,
	"scenes":[
		{
			"name":"Scene",
			"nodes":[
				0,
				1,
				2,
				3,
				4,
				5,
				6
			]
		}
	],
	"nodes":[
		{
			"mesh":0,
			"name":"inner.001",
			"scale":[
				0.4578654170036316,
				0.4578654170036316,
				0.4578654170036316
			],
			"translation":[
				-0.6867766380310059,
				0.2966543436050415,
				-0.6706766486167908
			]
		},
		{
			"mesh":1,
			"name":"inner.004",
			"scale":[
				0.4578654170036316,
				0.4578654170036316,
				0.4578654170036316
			],
			"translation":[
				-0.6867766380310059,
				0.2966543436050415,
				0.7029197216033936
			]
		},
		{
			"mesh":2,
			"name":"outer.001",
			"scale":[
				0.4578654170036316,
				0.4578654170036316,
				0.4578654170036316
			],
			"translation":[
				-0.6867766380310059,
				0.2966543436050415,
				-0.6706766486167908
			]
		},
		{
			"mesh":3,
			"name":"outer.004",
			"scale":[
				0.4578654170036316,
				0.4578654170036316,
				0.4578654170036316
			],
			"translation":[
				-0.6867766380310059,
				0.2966543436050415,
				0.7029197216033936
			]
		},
		{
			"mesh":4,
			"name":"Outer circle",
			"scale":[
				0.5383055210113525,
				0.5383055210113525,
				0.5383055210113525
			],
			"translation":[
				-0.0005199898732826114,
				0.3171982169151306,
				0.0020374953746795654
			]
		},
		{
			"mesh":5,
			"name":"Star",
			"scale":[
				0.4578654170036316,
				0.4578654170036316,
				0.4578654170036316
			],
			"translation":[
				0.0007448950200341642,
				0.20953720808029175,
				-2.2308056354522705
			]
		},
		{
			"mesh":6,
			"name":"Center",
			"translation":[
				3.552716225385666e-05,
				0,
				-6.868256605230272e-06
			]
		}
	],
	"materials":[
		{
			"doubleSided":true,
			"name":"Material.022",
			"pbrMetallicRoughness":{
				"baseColorFactor":[
					0.800000011920929,
					0.800000011920929,
					0.800000011920929,
					1
				],
				"metallicFactor":0,
				"roughnessFactor":0.5
			}
		},
		{
			"doubleSided":true,
			"name":"Material.023",
			"pbrMetallicRoughness":{
				"baseColorFactor":[
					0.8000000715255737,
					0.0172499381005764,
					0.03430316224694252,
					1
				],
				"metallicFactor":0,
				"roughnessFactor":0.5
			}
		},
		{
			"doubleSided":true,
			"name":"Material.018",
			"pbrMetallicRoughness":{
				"baseColorFactor":[
					0.800000011920929,
					0.800000011920929,
					0.800000011920929,
					1
				],
				"metallicFactor":0,
				"roughnessFactor":0.5
			}
		},
		{
			"doubleSided":true,
			"name":"Material.019",
			"pbrMetallicRoughness":{
				"baseColorFactor":[
					0.8000000715255737,
					0.0172499381005764,
					0.03430316224694252,
					1
				],
				"metallicFactor":0,
				"roughnessFactor":0.5
			}
		},
		{
			"doubleSided":true,
			"name":"NIght sky.001",
			"pbrMetallicRoughness":{
				"baseColorFactor":[
					0,
					0.017181960865855217,
					0.08337723463773727,
					1
				],
				"metallicFactor":0,
				"roughnessFactor":0.5
			}
		},
		{
			"doubleSided":true,
			"name":"Material.006",
			"pbrMetallicRoughness":{
				"baseColorFactor":[
					0.800000011920929,
					0.800000011920929,
					0.800000011920929,
					1
				],
				"metallicFactor":0,
				"roughnessFactor":0.5
			}
		},
		{
			"doubleSided":true,
			"name":"Material.011",
			"pbrMetallicRoughness":{
				"baseColorFactor":[
					0.8000000715255737,
					0.0172499381005764,
					0.03430316224694252,
					1
				],
				"metallicFactor":0,
				"roughnessFactor":0.5
			}
		},
		{
			"doubleSided":true,
			"extensions":{
				"KHR_materials_specular":{
					"specularColorFactor":[
						0.77821069340726,
						0.77821069340726,
						0.77821069340726
					]
				},
				"KHR_materials_ior":{
					"ior":1.4500000476837158
				}
			},
			"name":"Sun.001",
			"pbrMetallicRoughness":{
				"baseColorFactor":[
					0.7144439816474915,
					0,
					0.039258524775505066,
					1
				],
				"metallicFactor":0.8433311581611633,
				"roughnessFactor":0.42391306161880493
			}
		},
		{
			"doubleSided":true,
			"extensions":{
				"KHR_materials_specular":{
					"specularColorFactor":[
						1.2569978438462994,
						1.2569978438462994,
						1.2569978438462994
					]
				},
				"KHR_materials_ior":{
					"ior":1.4500000476837158
				}
			},
			"name":"White.001",
			"pbrMetallicRoughness":{
				"baseColorFactor":[
					1,
					0.9896575212478638,
					0.7989807724952698,
					1
				],
				"metallicFactor":0,
				"roughnessFactor":0.4615384340286255
			}
		},
		{
			"doubleSided":true,
			"name":"Material.024",
			"pbrMetallicRoughness":{
				"baseColorFactor":[
					1,
					0.5069183111190796,
					0,
					1
				],
				"metallicFactor":0.2788461446762085,
				"roughnessFactor":0.5
			}
		},
		{
			"doubleSided":true,
			"extensions":{
				"KHR_materials_specular":{
					"specularColorFactor":[
						0.04038464069366455,
						0.04038464069366455,
						0.04038464069366455
					]
				},
				"KHR_materials_ior":{
					"ior":0
				}
			},
			"name":"Jade.001",
			"pbrMetallicRoughness":{
				"baseColorFactor":[
					0.00998742412775755,
					0.19098326563835144,
					0.028470119461417198,
					1
				],
				"metallicFactor":0.4386928677558899,
				"roughnessFactor":0.12019228935241699
			}
		},
		{
			"doubleSided":true,
			"name":"Sky.001",
			"pbrMetallicRoughness":{
				"baseColorFactor":[
					0.07458598166704178,
					0.28998863697052,
					0.7304612398147583,
					1
				],
				"metallicFactor":0,
				"roughnessFactor":0.5
			}
		}
	],
	"meshes":[
		{
			"name":"Circle.013",
			"primitives":[
				{
					"attributes":{
						"POSITION":0,
						"NORMAL":1,
						"TEXCOORD_0":2
					},
					"indices":3
				}
			]
		},
		{
			"name":"Circle.019",
			"primitives":[
				{
					"attributes":{
						"POSITION":4,
						"NORMAL":5,
						"TEXCOORD_0":6
					},
					"indices":3
				}
			]
		},
		{
			"name":"Circle.009",
			"primitives":[
				{
					"attributes":{
						"POSITION":7,
						"NORMAL":8,
						"TEXCOORD_0":9
					},
					"indices":10,
					"material":0
				},
				{
					"attributes":{
						"POSITION":11,
						"NORMAL":12,
						"TEXCOORD_0":13
					},
					"indices":14,
					"material":1
				}
			]
		},
		{
			"name":"Circle.017",
			"primitives":[
				{
					"attributes":{
						"POSITION":15,
						"NORMAL":16,
						"TEXCOORD_0":17
					},
					"indices":10,
					"material":2
				},
				{
					"attributes":{
						"POSITION":18,
						"NORMAL":19,
						"TEXCOORD_0":20
					},
					"indices":14,
					"material":3
				}
			]
		},
		{
			"name":"Circle.004",
			"primitives":[
				{
					"attributes":{
						"POSITION":21,
						"NORMAL":22,
						"TEXCOORD_0":23
					},
					"indices":24,
					"material":4
				}
			]
		},
		{
			"name":"Circle.008",
			"primitives":[
				{
					"attributes":{
						"POSITION":25,
						"NORMAL":26,
						"TEXCOORD_0":27
					},
					"indices":28,
					"material":5
				},
				{
					"attributes":{
						"POSITION":29,
						"NORMAL":30,
						"TEXCOORD_0":31
					},
					"indices":32,
					"material":6
				}
			]
		},
		{
			"name":"Circle.010",
			"primitives":[
				{
					"attributes":{
						"POSITION":33,
						"NORMAL":34,
						"TEXCOORD_0":35
					},
					"indices":36,
					"material":7
				},
				{
					"attributes":{
						"POSITION":37,
						"NORMAL":38,
						"TEXCOORD_0":39
					},
					"indices":40,
					"material":8
				},
				{
					"attributes":{
						"POSITION":41,
						"NORMAL":42,
						"TEXCOORD_0":43
					},
					"indices":44,
					"material":9
				},
				{
					"attributes":{
						"POSITION":45,
						"NORMAL":46,
						"TEXCOORD_0":47
					},
					"indices":48,
					"material":10
				},
				{
					"attributes":{
						"POSITION":49,
						"NORMAL":50,
						"TEXCOORD_0":51
					},
					"indices":52,
					"material":11
				}
			]
		}
	],
	"accessors":[
		{
			"bufferView":0,
			"componentType":5126,
			"count":88,
			"max":[
				0.24879035353660583,
				0.20000021159648895,
				0
			],
			"min":[
				-0.24879035353660583,
				0,
				-0.24879035353660583
			],
			"type":"VEC3"
		},
		{
			"bufferView":1,
			"componentType":5126,
			"count":88,
			"type":"VEC3"
		},
		{
			"bufferView":2,
			"componentType":5126,
			"count":88,
			"type":"VEC2"
		},
		{
			"bufferView":3,
			"componentType":5123,
			"count":504,
			"type":"SCALAR"
		},
		{
			"bufferView":4,
			"componentType":5126,
			"count":88,
			"max":[
				0.24879035353660583,
				0.20000021159648895,
				0
			],
			"min":[
				-0.24879035353660583,
				0,
				-0.24879035353660583
			],
			"type":"VEC3"
		},
		{
			"bufferView":5,
			"componentType":5126,
			"count":88,
			"type":"VEC3"
		},
		{
			"bufferView":6,
			"componentType":5126,
			"count":88,
			"type":"VEC2"
		},
		{
			"bufferView":7,
			"componentType":5126,
			"count":272,
			"max":[
				0.5,
				0.20000000298023224,
				0
			],
			"min":[
				-0.5,
				0,
				-0.5
			],
			"type":"VEC3"
		},
		{
			"bufferView":8,
			"componentType":5126,
			"count":272,
			"type":"VEC3"
		},
		{
			"bufferView":9,
			"componentType":5126,
			"count":272,
			"type":"VEC2"
		},
		{
			"bufferView":10,
			"componentType":5123,
			"count":1536,
			"type":"SCALAR"
		},
		{
			"bufferView":11,
			"componentType":5126,
			"count":178,
			"max":[
				0.5,
				0.20000000298023224,
				0.5
			],
			"min":[
				-0.5,
				0,
				-4.656612873077393e-10
			],
			"type":"VEC3"
		},
		{
			"bufferView":12,
			"componentType":5126,
			"count":178,
			"type":"VEC3"
		},
		{
			"bufferView":13,
			"componentType":5126,
			"count":178,
			"type":"VEC2"
		},
		{
			"bufferView":14,
			"componentType":5123,
			"count":969,
			"type":"SCALAR"
		},
		{
			"bufferView":15,
			"componentType":5126,
			"count":272,
			"max":[
				0.5,
				0.20000000298023224,
				0
			],
			"min":[
				-0.5,
				0,
				-0.5
			],
			"type":"VEC3"
		},
		{
			"bufferView":16,
			"componentType":5126,
			"count":272,
			"type":"VEC3"
		},
		{
			"bufferView":17,
			"componentType":5126,
			"count":272,
			"type":"VEC2"
		},
		{
			"bufferView":18,
			"componentType":5126,
			"count":178,
			"max":[
				0.5,
				0.20000000298023224,
				0.5
			],
			"min":[
				-0.5,
				0,
				-4.656612873077393e-10
			],
			"type":"VEC3"
		},
		{
			"bufferView":19,
			"componentType":5126,
			"count":178,
			"type":"VEC3"
		},
		{
			"bufferView":20,
			"componentType":5126,
			"count":178,
			"type":"VEC2"
		},
		{
			"bufferView":21,
			"componentType":5126,
			"count":510,
			"max":[
				0.0025750561617314816,
				0,
				3.7305150032043457
			],
			"min":[
				-3.7099995613098145,
				-0.9599863290786743,
				-3.7099995613098145
			],
			"type":"VEC3"
		},
		{
			"bufferView":22,
			"componentType":5126,
			"count":510,
			"type":"VEC3"
		},
		{
			"bufferView":23,
			"componentType":5126,
			"count":510,
			"type":"VEC2"
		},
		{
			"bufferView":24,
			"componentType":5123,
			"count":1062,
			"type":"SCALAR"
		},
		{
			"bufferView":25,
			"componentType":5126,
			"count":2520,
			"max":[
				0.5,
				0.20000021159648895,
				10.253278732299805
			],
			"min":[
				-5.379401683807373,
				0,
				-0.5
			],
			"type":"VEC3"
		},
		{
			"bufferView":26,
			"componentType":5126,
			"count":2520,
			"type":"VEC3"
		},
		{
			"bufferView":27,
			"componentType":5126,
			"count":2520,
			"type":"VEC2"
		},
		{
			"bufferView":28,
			"componentType":5123,
			"count":14280,
			"type":"SCALAR"
		},
		{
			"bufferView":29,
			"componentType":5126,
			"count":1246,
			"max":[
				0.5,
				0.20000000298023224,
				9.753280639648438
			],
			"min":[
				-4.879403591156006,
				0,
				-4.656612873077393e-10
			],
			"type":"VEC3"
		},
		{
			"bufferView":30,
			"componentType":5126,
			"count":1246,
			"type":"VEC3"
		},
		{
			"bufferView":31,
			"componentType":5126,
			"count":1246,
			"type":"VEC2"
		},
		{
			"bufferView":32,
			"componentType":5123,
			"count":6783,
			"type":"SCALAR"
		},
		{
			"bufferView":33,
			"componentType":5126,
			"count":6497,
			"max":[
				1.9888478517532349,
				0.2000001221895218,
				1.9955406188964844
			],
			"min":[
				0.00028777122497558594,
				-0.20000000298023224,
				-1.9999713897705078
			],
			"type":"VEC3"
		},
		{
			"bufferView":34,
			"componentType":5126,
			"count":6497,
			"type":"VEC3"
		},
		{
			"bufferView":35,
			"componentType":5126,
			"count":6497,
			"type":"VEC2"
		},
		{
			"bufferView":36,
			"componentType":5123,
			"count":17883,
			"type":"SCALAR"
		},
		{
			"bufferView":37,
			"componentType":5126,
			"count":5750,
			"max":[
				1.889716625213623,
				0.10152246803045273,
				1.8855332136154175
			],
			"min":[
				0.00028777122497558594,
				-0.20000000298023224,
				-1.8897438049316406
			],
			"type":"VEC3"
		},
		{
			"bufferView":38,
			"componentType":5126,
			"count":5750,
			"type":"VEC3"
		},
		{
			"bufferView":39,
			"componentType":5126,
			"count":5750,
			"type":"VEC2"
		},
		{
			"bufferView":40,
			"componentType":5123,
			"count":21321,
			"type":"SCALAR"
		},
		{
			"bufferView":41,
			"componentType":5126,
			"count":168,
			"max":[
				1.9988476037979126,
				0,
				1.9955406188964844
			],
			"min":[
				0.00028777122497558594,
				-0.20000000298023224,
				-1.9999713897705078
			],
			"type":"VEC3"
		},
		{
			"bufferView":42,
			"componentType":5126,
			"count":168,
			"type":"VEC3"
		},
		{
			"bufferView":43,
			"componentType":5126,
			"count":168,
			"type":"VEC2"
		},
		{
			"bufferView":44,
			"componentType":5123,
			"count":336,
			"type":"SCALAR"
		},
		{
			"bufferView":45,
			"componentType":5126,
			"count":642,
			"max":[
				1.2080330848693848,
				0.10002687573432922,
				1.2065715789794922
			],
			"min":[
				0.00028777122497558594,
				0,
				-1.2080602645874023
			],
			"type":"VEC3"
		},
		{
			"bufferView":46,
			"componentType":5126,
			"count":642,
			"type":"VEC3"
		},
		{
			"bufferView":47,
			"componentType":5126,
			"count":642,
			"type":"VEC2"
		},
		{
			"bufferView":48,
			"componentType":5123,
			"count":3642,
			"type":"SCALAR"
		},
		{
			"bufferView":49,
			"componentType":5126,
			"count":359,
			"max":[
				0.5,
				0.20000000298023224,
				0.4999716579914093
			],
			"min":[
				0.00028777122497558594,
				0,
				-0.4999716579914093
			],
			"type":"VEC3"
		},
		{
			"bufferView":50,
			"componentType":5126,
			"count":359,
			"type":"VEC3"
		},
		{
			"bufferView":51,
			"componentType":5126,
			"count":359,
			"type":"VEC2"
		},
		{
			"bufferView":52,
			"componentType":5123,
			"count":1632,
			"type":"SCALAR"
		}
	],
	"bufferViews":[
		{
			"buffer":0,
			"byteLength":1056,
			"byteOffset":0,
			"target":34962
		},
		{
			"buffer":0,
			"byteLength":1056,
			"byteOffset":1056,
			"target":34962
		},
		{
			"buffer":0,
			"byteLength":704,
			"byteOffset":2112,
			"target":34962
		},
		{
			"buffer":0,
			"byteLength":1008,
			"byteOffset":2816,
			"target":34963
		},
		{
			"buffer":0,
			"byteLength":1056,
			"byteOffset":3824,
			"target":34962
		},
		{
			"buffer":0,
			"byteLength":1056,
			"byteOffset":4880,
			"target":34962
		},
		{
			"buffer":0,
			"byteLength":704,
			"byteOffset":5936,
			"target":34962
		},
		{
			"buffer":0,
			"byteLength":3264,
			"byteOffset":6640,
			"target":34962
		},
		{
			"buffer":0,
			"byteLength":3264,
			"byteOffset":9904,
			"target":34962
		},
		{
			"buffer":0,
			"byteLength":2176,
			"byteOffset":13168,
			"target":34962
		},
		{
			"buffer":0,
			"byteLength":3072,
			"byteOffset":15344,
			"target":34963
		},
		{
			"buffer":0,
			"byteLength":2136,
			"byteOffset":18416,
			"target":34962
		},
		{
			"buffer":0,
			"byteLength":2136,
			"byteOffset":20552,
			"target":34962
		},
		{
			"buffer":0,
			"byteLength":1424,
			"byteOffset":22688,
			"target":34962
		},
		{
			"buffer":0,
			"byteLength":1938,
			"byteOffset":24112,
			"target":34963
		},
		{
			"buffer":0,
			"byteLength":3264,
			"byteOffset":26052,
			"target":34962
		},
		{
			"buffer":0,
			"byteLength":3264,
			"byteOffset":29316,
			"target":34962
		},
		{
			"buffer":0,
			"byteLength":2176,
			"byteOffset":32580,
			"target":34962
		},
		{
			"buffer":0,
			"byteLength":2136,
			"byteOffset":34756,
			"target":34962
		},
		{
			"buffer":0,
			"byteLength":2136,
			"byteOffset":36892,
			"target":34962
		},
		{
			"buffer":0,
			"byteLength":1424,
			"byteOffset":39028,
			"target":34962
		},
		{
			"buffer":0,
			"byteLength":6120,
			"byteOffset":40452,
			"target":34962
		},
		{
			"buffer":0,
			"byteLength":6120,
			"byteOffset":46572,
			"target":34962
		},
		{
			"buffer":0,
			"byteLength":4080,
			"byteOffset":52692,
			"target":34962
		},
		{
			"buffer":0,
			"byteLength":2124,
			"byteOffset":56772,
			"target":34963
		},
		{
			"buffer":0,
			"byteLength":30240,
			"byteOffset":58896,
			"target":34962
		},
		{
			"buffer":0,
			"byteLength":30240,
			"byteOffset":89136,
			"target":34962
		},
		{
			"buffer":0,
			"byteLength":20160,
			"byteOffset":119376,
			"target":34962
		},
		{
			"buffer":0,
			"byteLength":28560,
			"byteOffset":139536,
			"target":34963
		},
		{
			"buffer":0,
			"byteLength":14952,
			"byteOffset":168096,
			"target":34962
		},
		{
			"buffer":0,
			"byteLength":14952,
			"byteOffset":183048,
			"target":34962
		},
		{
			"buffer":0,
			"byteLength":9968,
			"byteOffset":198000,
			"target":34962
		},
		{
			"buffer":0,
			"byteLength":13566,
			"byteOffset":207968,
			"target":34963
		},
		{
			"buffer":0,
			"byteLength":77964,
			"byteOffset":221536,
			"target":34962
		},
		{
			"buffer":0,
			"byteLength":77964,
			"byteOffset":299500,
			"target":34962
		},
		{
			"buffer":0,
			"byteLength":51976,
			"byteOffset":377464,
			"target":34962
		},
		{
			"buffer":0,
			"byteLength":35766,
			"byteOffset":429440,
			"target":34963
		},
		{
			"buffer":0,
			"byteLength":69000,
			"byteOffset":465208,
			"target":34962
		},
		{
			"buffer":0,
			"byteLength":69000,
			"byteOffset":534208,
			"target":34962
		},
		{
			"buffer":0,
			"byteLength":46000,
			"byteOffset":603208,
			"target":34962
		},
		{
			"buffer":0,
			"byteLength":42642,
			"byteOffset":649208,
			"target":34963
		},
		{
			"buffer":0,
			"byteLength":2016,
			"byteOffset":691852,
			"target":34962
		},
		{
			"buffer":0,
			"byteLength":2016,
			"byteOffset":693868,
			"target":34962
		},
		{
			"buffer":0,
			"byteLength":1344,
			"byteOffset":695884,
			"target":34962
		},
		{
			"buffer":0,
			"byteLength":672,
			"byteOffset":697228,
			"target":34963
		},
		{
			"buffer":0,
			"byteLength":7704,
			"byteOffset":697900,
			"target":34962
		},
		{
			"buffer":0,
			"byteLength":7704,
			"byteOffset":705604,
			"target":34962
		},
		{
			"buffer":0,
			"byteLength":5136,
			"byteOffset":713308,
			"target":34962
		},
		{
			"buffer":0,
			"byteLength":7284,
			"byteOffset":718444,
			"target":34963
		},
		{
			"buffer":0,
			"byteLength":4308,
			"byteOffset":725728,
			"target":34962
		},
		{
			"buffer":0,
			"byteLength":4308,
			"byteOffset":730036,
			"target":34962
		},
		{
			"buffer":0,
			"byteLength":2872,
			"byteOffset":734344,
			"target":34962
		},
		{
			"buffer":0,
			"byteLength":3264,
			"byteOffset":737216,
			"target":34963
		}
	],
	"buffers":[
		{
			"byteLength":740480,
			"uri":"data:application/octet-stream;base64,"
		}
	]
}
