{
	"asset":{
		"generator":"Khronos glTF Blender I/O v3.6.27",
		"version":"2.0"
	},
	"scene":0,
	"scenes":[
		{
			"name":"Scene",
			"nodes":[
				0,
				1,
				2,
				3,
				4,
				5,
				6,
				7,
				8
			]
		}
	],
	"nodes":[
		{
			"name":"Plane.002",
			"rotation":[
				0,
				-0.7071068286895752,
				0,
				0.7071068286895752
			],
			"translation":[
				-0.8913727402687073,
				-0.019566774368286133,
				-1.512168526649475
			]
		},
		{
			"mesh":0,
			"name":"Spike true",
			"rotation":[
				-0.4910084307193756,
				-0.49100834131240845,
				0.5088326334953308,
				0.5088328123092651
			],
			"translation":[
				-4.718376159667969,
				0.03962135314941406,
				-1.905038833618164
			]
		},
		{
			"mesh":1,
			"name":"Outer ring",
			"rotation":[
				0,
				-0.7071068286895752,
				0,
				0.7071068286895752
			],
			"translation":[
				-0.03854525089263916,
				0.09585094451904297,
				-0.32033878564834595
			]
		},
		{
			"mesh":2,
			"name":"Circle.001",
			"rotation":[
				0,
				-0.7071068286895752,
				0,
				0.7071068286895752
			],
			"scale":[
				0.7694504261016846,
				0.7694504261016846,
				0.7694504261016846
			],
			"translation":[
				-0.10733824968338013,
				0.5334072709083557,
				0.5665849447250366
			]
		},
		{
			"mesh":3,
			"name":"inner",
			"scale":[
				0.7140519618988037,
				0.7140519618988037,
				0.7140519618988037
			],
			"translation":[
				-0.04293292760848999,
				0.04961366951465607,
				-0.27872130274772644
			]
		},
		{
			"mesh":4,
			"name":"outer",
			"scale":[
				0.6404540538787842,
				0.6404540538787842,
				0.6404540538787842
			],
			"translation":[
				-0.04293292760848999,
				0.11737007647752762,
				-0.27872130274772644
			]
		},
		{
			"mesh":5,
			"name":"Star.001",
			"rotation":[
				0,
				0.9537169337272644,
				0,
				0.30070585012435913
			],
			"scale":[
				0.5590057373046875,
				0.5590055584907532,
				0.5590057373046875
			],
			"translation":[
				-1.3333126306533813,
				0.10877808928489685,
				-0.5914738178253174
			]
		},
		{
			"mesh":6,
			"name":"Tear canvas.001",
			"rotation":[
				0,
				-0.13052621483802795,
				0,
				0.9914448857307434
			],
			"translation":[
				-0.026155628263950348,
				-0.09500636160373688,
				-0.24578911066055298
			]
		},
		{
			"mesh":7,
			"name":"Tear backgounr.001",
			"rotation":[
				0,
				-0.13052621483802795,
				0,
				0.9914448857307434
			],
			"translation":[
				-0.6961310505867004,
				0.060149431228637695,
				-0.44292622804641724
			]
		}
	],
	"materials":[
		{
			"doubleSided":true,
			"name":"Material.003",
			"pbrMetallicRoughness":{
				"metallicFactor":0,
				"roughnessFactor":0.5
			}
		},
		{
			"doubleSided":true,
			"name":"Material.004",
			"pbrMetallicRoughness":{
				"baseColorFactor":[
					1,
					0.03189576789736748,
					0.07227186858654022,
					1
				],
				"metallicFactor":0,
				"roughnessFactor":0.5
			}
		},
		{
			"doubleSided":true,
			"name":"Yellow paint.002",
			"pbrMetallicRoughness":{
				"baseColorFactor":[
					1,
					0.5332760810852051,
					0,
					1
				],
				"metallicFactor":0,
				"roughnessFactor":0.5
			}
		},
		{
			"doubleSided":true,
			"name":"Material.001",
			"pbrMetallicRoughness":{
				"baseColorFactor":[
					0.001214070012792945,
					0.00367648433893919,
					0.05612848326563835,
					1
				],
				"metallicFactor":0,
				"roughnessFactor":0.5
			}
		},
		{
			"doubleSided":true,
			"name":"Material.005",
			"pbrMetallicRoughness":{
				"baseColorFactor":[
					0.800000011920929,
					0.800000011920929,
					0.800000011920929,
					1
				],
				"metallicFactor":0,
				"roughnessFactor":0.5
			}
		},
		{
			"doubleSided":true,
			"name":"Material.007",
			"pbrMetallicRoughness":{
				"baseColorFactor":[
					0.8000000715255737,
					0.0172499381005764,
					0.03430316224694252,
					1
				],
				"metallicFactor":0,
				"roughnessFactor":0.5
			}
		},
		{
			"doubleSided":true,
			"name":"Material.011",
			"pbrMetallicRoughness":{
				"baseColorFactor":[
					0.800000011920929,
					0.800000011920929,
					0.800000011920929,
					1
				],
				"metallicFactor":0,
				"roughnessFactor":0.5
			}
		},
		{
			"doubleSided":true,
			"name":"Material.010",
			"pbrMetallicRoughness":{
				"baseColorFactor":[
					0.8000000715255737,
					0.0172499381005764,
					0.03430316224694252,
					1
				],
				"metallicFactor":0,
				"roughnessFactor":0.5
			}
		},
		{
			"doubleSided":true,
			"name":"Yellow paint.003",
			"pbrMetallicRoughness":{
				"baseColorFactor":[
					1,
					0.5332760810852051,
					0,
					1
				],
				"metallicFactor":0,
				"roughnessFactor":0.5
			}
		},
		{
			"doubleSided":true,
			"name":"Black paint.001",
			"pbrMetallicRoughness":{
				"baseColorFactor":[
					0.0012333625927567482,
					0.0036138040013611317,
					0.05609572306275368,
					1
				],
				"metallicFactor":0,
				"roughnessFactor":0.5
			}
		}
	],
	"meshes":[
		{
			"name":"Cone.001",
			"primitives":[
				{
					"attributes":{
						"POSITION":0,
						"NORMAL":1,
						"TEXCOORD_0":2
					},
					"indices":3,
					"material":0
				},
				{
					"attributes":{
						"POSITION":4,
						"NORMAL":5,
						"TEXCOORD_0":6
					},
					"indices":7,
					"material":1
				}
			]
		},
		{
			"name":"Plane.001",
			"primitives":[
				{
					"attributes":{
						"POSITION":8,
						"NORMAL":9,
						"TEXCOORD_0":10
					},
					"indices":11,
					"material":2
				}
			]
		},
		{
			"name":"Circle.005",
			"primitives":[
				{
					"attributes":{
						"POSITION":12,
						"NORMAL":13,
						"TEXCOORD_0":14
					},
					"indices":15,
					"material":3
				}
			]
		},
		{
			"name":"Circle.006",
			"primitives":[
				{
					"attributes":{
						"POSITION":16,
						"NORMAL":17,
						"TEXCOORD_0":18
					},
					"indices":19
				}
			]
		},
		{
			"name":"Circle.002",
			"primitives":[
				{
					"attributes":{
						"POSITION":20,
						"NORMAL":21,
						"TEXCOORD_0":22
					},
					"indices":23,
					"material":4
				},
				{
					"attributes":{
						"POSITION":24,
						"NORMAL":25,
						"TEXCOORD_0":26
					},
					"indices":27,
					"material":5
				}
			]
		},
		{
			"name":"Circle.012",
			"primitives":[
				{
					"attributes":{
						"POSITION":28,
						"NORMAL":29,
						"TEXCOORD_0":30
					},
					"indices":31,
					"material":6
				},
				{
					"attributes":{
						"POSITION":32,
						"NORMAL":33,
						"TEXCOORD_0":34
					},
					"indices":35,
					"material":7
				}
			]
		},
		{
			"name":"Plane.006",
			"primitives":[
				{
					"attributes":{
						"POSITION":36,
						"NORMAL":37,
						"TEXCOORD_0":38
					},
					"indices":39,
					"material":8
				}
			]
		},
		{
			"name":"Plane.005",
			"primitives":[
				{
					"attributes":{
						"POSITION":40,
						"NORMAL":41,
						"TEXCOORD_0":42
					},
					"indices":43,
					"material":9
				}
			]
		}
	],
	"accessors":[
		{
			"bufferView":0,
			"componentType":5126,
			"count":576,
			"max":[
				-0.07252401113510132,
				0.20423880219459534,
				-2.2512261867523193
			],
			"min":[
				-0.31945499777793884,
				-2.1885039806365967,
				-6.964071273803711
			],
			"type":"VEC3"
		},
		{
			"bufferView":1,
			"componentType":5126,
			"count":576,
			"type":"VEC3"
		},
		{
			"bufferView":2,
			"componentType":5126,
			"count":576,
			"type":"VEC2"
		},
		{
			"bufferView":3,
			"componentType":5123,
			"count":2700,
			"type":"SCALAR"
		},
		{
			"bufferView":4,
			"componentType":5126,
			"count":312,
			"max":[
				-0.00959622859954834,
				-0.6336930394172668,
				-3.294813871383667
			],
			"min":[
				-0.4095618724822998,
				-2.159770965576172,
				-5.933541774749756
			],
			"type":"VEC3"
		},
		{
			"bufferView":5,
			"componentType":5126,
			"count":312,
			"type":"VEC3"
		},
		{
			"bufferView":6,
			"componentType":5126,
			"count":312,
			"type":"VEC2"
		},
		{
			"bufferView":7,
			"componentType":5123,
			"count":840,
			"type":"SCALAR"
		},
		{
			"bufferView":8,
			"componentType":5126,
			"count":5713,
			"max":[
				0.3477102816104889,
				0.15023654699325562,
				0.8634745478630066
			],
			"min":[
				-0.5109322667121887,
				-0.04981623589992523,
				-0.8634745478630066
			],
			"type":"VEC3"
		},
		{
			"bufferView":9,
			"componentType":5126,
			"count":5713,
			"type":"VEC3"
		},
		{
			"bufferView":10,
			"componentType":5126,
			"count":5713,
			"type":"VEC2"
		},
		{
			"bufferView":11,
			"componentType":5123,
			"count":9108,
			"type":"SCALAR"
		},
		{
			"bufferView":12,
			"componentType":5126,
			"count":32,
			"max":[
				-0.6231816411018372,
				-0.4755808115005493,
				0.4361629784107208
			],
			"min":[
				-1.6475147008895874,
				-0.4755808115005493,
				-0.588170051574707
			],
			"type":"VEC3"
		},
		{
			"bufferView":13,
			"componentType":5126,
			"count":32,
			"type":"VEC3"
		},
		{
			"bufferView":14,
			"componentType":5126,
			"count":32,
			"type":"VEC2"
		},
		{
			"bufferView":15,
			"componentType":5123,
			"count":90,
			"type":"SCALAR"
		},
		{
			"bufferView":16,
			"componentType":5126,
			"count":88,
			"max":[
				0.24879035353660583,
				0.20000021159648895,
				0
			],
			"min":[
				-0.24879035353660583,
				0,
				-0.24879035353660583
			],
			"type":"VEC3"
		},
		{
			"bufferView":17,
			"componentType":5126,
			"count":88,
			"type":"VEC3"
		},
		{
			"bufferView":18,
			"componentType":5126,
			"count":88,
			"type":"VEC2"
		},
		{
			"bufferView":19,
			"componentType":5123,
			"count":504,
			"type":"SCALAR"
		},
		{
			"bufferView":20,
			"componentType":5126,
			"count":272,
			"max":[
				0.5,
				0.20000000298023224,
				0
			],
			"min":[
				-0.5,
				0,
				-0.5
			],
			"type":"VEC3"
		},
		{
			"bufferView":21,
			"componentType":5126,
			"count":272,
			"type":"VEC3"
		},
		{
			"bufferView":22,
			"componentType":5126,
			"count":272,
			"type":"VEC2"
		},
		{
			"bufferView":23,
			"componentType":5123,
			"count":1536,
			"type":"SCALAR"
		},
		{
			"bufferView":24,
			"componentType":5126,
			"count":178,
			"max":[
				0.5,
				0.20000000298023224,
				0.5
			],
			"min":[
				-0.5,
				0,
				-4.656612873077393e-10
			],
			"type":"VEC3"
		},
		{
			"bufferView":25,
			"componentType":5126,
			"count":178,
			"type":"VEC3"
		},
		{
			"bufferView":26,
			"componentType":5126,
			"count":178,
			"type":"VEC2"
		},
		{
			"bufferView":27,
			"componentType":5123,
			"count":969,
			"type":"SCALAR"
		},
		{
			"bufferView":28,
			"componentType":5126,
			"count":1080,
			"max":[
				0.44139039516448975,
				0.09416153281927109,
				3.192183256149292
			],
			"min":[
				-4.235309600830078,
				-0.10583871603012085,
				-0.4766654968261719
			],
			"type":"VEC3"
		},
		{
			"bufferView":29,
			"componentType":5126,
			"count":1080,
			"type":"VEC3"
		},
		{
			"bufferView":30,
			"componentType":5126,
			"count":1080,
			"type":"VEC2"
		},
		{
			"bufferView":31,
			"componentType":5123,
			"count":6120,
			"type":"SCALAR"
		},
		{
			"bufferView":32,
			"componentType":5126,
			"count":534,
			"max":[
				0.112876296043396,
				0.09416132420301437,
				2.979090452194214
			],
			"min":[
				-4.120234489440918,
				-0.10583871603012085,
				-0.44698768854141235
			],
			"type":"VEC3"
		},
		{
			"bufferView":33,
			"componentType":5126,
			"count":534,
			"type":"VEC3"
		},
		{
			"bufferView":34,
			"componentType":5126,
			"count":534,
			"type":"VEC2"
		},
		{
			"bufferView":35,
			"componentType":5123,
			"count":2907,
			"type":"SCALAR"
		},
		{
			"bufferView":36,
			"componentType":5126,
			"count":4086,
			"max":[
				1.6085121631622314,
				0.253375381231308,
				0.5686163902282715
			],
			"min":[
				-1.8153347969055176,
				0.054113809019327164,
				-1.7347774505615234
			],
			"type":"VEC3"
		},
		{
			"bufferView":37,
			"componentType":5126,
			"count":4086,
			"type":"VEC3"
		},
		{
			"bufferView":38,
			"componentType":5126,
			"count":4086,
			"type":"VEC2"
		},
		{
			"bufferView":39,
			"componentType":5123,
			"count":24264,
			"type":"SCALAR"
		},
		{
			"bufferView":40,
			"componentType":5126,
			"count":12,
			"max":[
				2.255488395690918,
				3.7700602639745284e-09,
				0.41906073689460754
			],
			"min":[
				-0.9139090180397034,
				-3.7047399814582604e-08,
				-1.6079462766647339
			],
			"type":"VEC3"
		},
		{
			"bufferView":41,
			"componentType":5126,
			"count":12,
			"type":"VEC3"
		},
		{
			"bufferView":42,
			"componentType":5126,
			"count":12,
			"type":"VEC2"
		},
		{
			"bufferView":43,
			"componentType":5123,
			"count":18,
			"type":"SCALAR"
		}
	],
	"bufferViews":[
		{
			"buffer":0,
			"byteLength":6912,
			"byteOffset":0,
			"target":34962
		},
		{
			"buffer":0,
			"byteLength":6912,
			"byteOffset":6912,
			"target":34962
		},
		{
			"buffer":0,
			"byteLength":4608,
			"byteOffset":13824,
			"target":34962
		},
		{
			"buffer":0,
			"byteLength":5400,
			"byteOffset":18432,
			"target":34963
		},
		{
			"buffer":0,
			"byteLength":3744,
			"byteOffset":23832,
			"target":34962
		},
		{
			"buffer":0,
			"byteLength":3744,
			"byteOffset":27576,
			"target":34962
		},
		{
			"buffer":0,
			"byteLength":2496,
			"byteOffset":31320,
			"target":34962
		},
		{
			"buffer":0,
			"byteLength":1680,
			"byteOffset":33816,
			"target":34963
		},
		{
			"buffer":0,
			"byteLength":68556,
			"byteOffset":35496,
			"target":34962
		},
		{
			"buffer":0,
			"byteLength":68556,
			"byteOffset":104052,
			"target":34962
		},
		{
			"buffer":0,
			"byteLength":45704,
			"byteOffset":172608,
			"target":34962
		},
		{
			"buffer":0,
			"byteLength":18216,
			"byteOffset":218312,
			"target":34963
		},
		{
			"buffer":0,
			"byteLength":384,
			"byteOffset":236528,
			"target":34962
		},
		{
			"buffer":0,
			"byteLength":384,
			"byteOffset":236912,
			"target":34962
		},
		{
			"buffer":0,
			"byteLength":256,
			"byteOffset":237296,
			"target":34962
		},
		{
			"buffer":0,
			"byteLength":180,
			"byteOffset":237552,
			"target":34963
		},
		{
			"buffer":0,
			"byteLength":1056,
			"byteOffset":237732,
			"target":34962
		},
		{
			"buffer":0,
			"byteLength":1056,
			"byteOffset":238788,
			"target":34962
		},
		{
			"buffer":0,
			"byteLength":704,
			"byteOffset":239844,
			"target":34962
		},
		{
			"buffer":0,
			"byteLength":1008,
			"byteOffset":240548,
			"target":34963
		},
		{
			"buffer":0,
			"byteLength":3264,
			"byteOffset":241556,
			"target":34962
		},
		{
			"buffer":0,
			"byteLength":3264,
			"byteOffset":244820,
			"target":34962
		},
		{
			"buffer":0,
			"byteLength":2176,
			"byteOffset":248084,
			"target":34962
		},
		{
			"buffer":0,
			"byteLength":3072,
			"byteOffset":250260,
			"target":34963
		},
		{
			"buffer":0,
			"byteLength":2136,
			"byteOffset":253332,
			"target":34962
		},
		{
			"buffer":0,
			"byteLength":2136,
			"byteOffset":255468,
			"target":34962
		},
		{
			"buffer":0,
			"byteLength":1424,
			"byteOffset":257604,
			"target":34962
		},
		{
			"buffer":0,
			"byteLength":1938,
			"byteOffset":259028,
			"target":34963
		},
		{
			"buffer":0,
			"byteLength":12960,
			"byteOffset":260968,
			"target":34962
		},
		{
			"buffer":0,
			"byteLength":12960,
			"byteOffset":273928,
			"target":34962
		},
		{
			"buffer":0,
			"byteLength":8640,
			"byteOffset":286888,
			"target":34962
		},
		{
			"buffer":0,
			"byteLength":12240,
			"byteOffset":295528,
			"target":34963
		},
		{
			"buffer":0,
			"byteLength":6408,
			"byteOffset":307768,
			"target":34962
		},
		{
			"buffer":0,
			"byteLength":6408,
			"byteOffset":314176,
			"target":34962
		},
		{
			"buffer":0,
			"byteLength":4272,
			"byteOffset":320584,
			"target":34962
		},
		{
			"buffer":0,
			"byteLength":5814,
			"byteOffset":324856,
			"target":34963
		},
		{
			"buffer":0,
			"byteLength":49032,
			"byteOffset":330672,
			"target":34962
		},
		{
			"buffer":0,
			"byteLength":49032,
			"byteOffset":379704,
			"target":34962
		},
		{
			"buffer":0,
			"byteLength":32688,
			"byteOffset":428736,
			"target":34962
		},
		{
			"buffer":0,
			"byteLength":48528,
			"byteOffset":461424,
			"target":34963
		},
		{
			"buffer":0,
			"byteLength":144,
			"byteOffset":509952,
			"target":34962
		},
		{
			"buffer":0,
			"byteLength":144,
			"byteOffset":510096,
			"target":34962
		},
		{
			"buffer":0,
			"byteLength":96,
			"byteOffset":510240,
			"target":34962
		},
		{
			"buffer":0,
			"byteLength":36,
			"byteOffset":510336,
			"target":34963
		}
	],
	"buffers":[
		{
			"byteLength":510372,
			"uri":"data:application/octet-stream;base64,"
		}
	]
}
