{
	"asset":{
		"generator":"Khronos glTF Blender I/O v3.6.27",
		"version":"2.0"
	},
	"scene":0,
	"scenes":[
		{
			"name":"Scene",
			"nodes":[
				0,
				1,
				2,
				3,
				4,
				5,
				6,
				7,
				8,
				9
			]
		}
	],
	"nodes":[
		{
			"mesh":0,
			"name":"Outer circle",
			"scale":[
				1.175684928894043,
				1.175684928894043,
				1.175684928894043
			],
			"translation":[
				-0.0011827051639556885,
				-0.44485440850257874,
				-0.03076004981994629
			]
		},
		{
			"mesh":1,
			"name":"Star",
			"translation":[
				0.0015798639506101608,
				-0.6799911856651306,
				-4.90739631652832
			]
		},
		{
			"mesh":2,
			"name":"outer.003",
			"translation":[
				1.5,
				-0.48972320556640625,
				1.5
			]
		},
		{
			"mesh":3,
			"name":"outer.004",
			"translation":[
				-1.5,
				-0.48972320556640625,
				1.5
			]
		},
		{
			"mesh":4,
			"name":"inner.003",
			"translation":[
				1.5,
				-0.48972320556640625,
				1.5
			]
		},
		{
			"mesh":5,
			"name":"inner.004",
			"translation":[
				-1.5,
				-0.48972320556640625,
				1.5
			]
		},
		{
			"mesh":6,
			"name":"inner.002",
			"translation":[
				1.5,
				-0.48972320556640625,
				-1.5
			]
		},
		{
			"mesh":7,
			"name":"outer.002",
			"translation":[
				1.5,
				-0.48972320556640625,
				-1.5
			]
		},
		{
			"mesh":8,
			"name":"inner.001",
			"translation":[
				-1.5,
				-0.48972320556640625,
				-1.5
			]
		},
		{
			"mesh":9,
			"name":"outer.001",
			"translation":[
				-1.5,
				-0.48972320556640625,
				-1.5
			]
		}
	],
	"materials":[
		{
			"doubleSided":true,
			"name":"NIght sky",
			"pbrMetallicRoughness":{
				"baseColorFactor":[
					0,
					0.017181960865855217,
					0.08337723463773727,
					1
				],
				"metallicFactor":0,
				"roughnessFactor":0.5
			}
		},
		{
			"doubleSided":true,
			"name":"Material.005",
			"pbrMetallicRoughness":{
				"baseColorFactor":[
					0.800000011920929,
					0.800000011920929,
					0.800000011920929,
					1
				],
				"metallicFactor":0,
				"roughnessFactor":0.5
			}
		},
		{
			"doubleSided":true,
			"name":"Material.004",
			"pbrMetallicRoughness":{
				"baseColorFactor":[
					0.8000000715255737,
					0.0172499381005764,
					0.03430316224694252,
					1
				],
				"metallicFactor":0,
				"roughnessFactor":0.5
			}
		},
		{
			"doubleSided":true,
			"name":"Material.013",
			"pbrMetallicRoughness":{
				"baseColorFactor":[
					0.800000011920929,
					0.800000011920929,
					0.800000011920929,
					1
				],
				"metallicFactor":0,
				"roughnessFactor":0.5
			}
		},
		{
			"doubleSided":true,
			"name":"Material.014",
			"pbrMetallicRoughness":{
				"baseColorFactor":[
					0.8000000715255737,
					0.0172499381005764,
					0.03430316224694252,
					1
				],
				"metallicFactor":0,
				"roughnessFactor":0.5
			}
		},
		{
			"doubleSided":true,
			"name":"Material.015",
			"pbrMetallicRoughness":{
				"baseColorFactor":[
					0.800000011920929,
					0.800000011920929,
					0.800000011920929,
					1
				],
				"metallicFactor":0,
				"roughnessFactor":0.5
			}
		},
		{
			"doubleSided":true,
			"name":"Material.016",
			"pbrMetallicRoughness":{
				"baseColorFactor":[
					0.8000000715255737,
					0.0172499381005764,
					0.03430316224694252,
					1
				],
				"metallicFactor":0,
				"roughnessFactor":0.5
			}
		},
		{
			"doubleSided":true,
			"name":"Material.010",
			"pbrMetallicRoughness":{
				"baseColorFactor":[
					0.800000011920929,
					0.800000011920929,
					0.800000011920929,
					1
				],
				"metallicFactor":0,
				"roughnessFactor":0.5
			}
		},
		{
			"doubleSided":true,
			"name":"Material.009",
			"pbrMetallicRoughness":{
				"baseColorFactor":[
					0.8000000715255737,
					0.0172499381005764,
					0.03430316224694252,
					1
				],
				"metallicFactor":0,
				"roughnessFactor":0.5
			}
		},
		{
			"doubleSided":true,
			"name":"Material.007",
			"pbrMetallicRoughness":{
				"baseColorFactor":[
					0.800000011920929,
					0.800000011920929,
					0.800000011920929,
					1
				],
				"metallicFactor":0,
				"roughnessFactor":0.5
			}
		},
		{
			"doubleSided":true,
			"name":"Material.008",
			"pbrMetallicRoughness":{
				"baseColorFactor":[
					0.8000000715255737,
					0.0172499381005764,
					0.03430316224694252,
					1
				],
				"metallicFactor":0,
				"roughnessFactor":0.5
			}
		}
	],
	"meshes":[
		{
			"name":"Circle.004",
			"primitives":[
				{
					"attributes":{
						"POSITION":0,
						"NORMAL":1,
						"TEXCOORD_0":2
					},
					"indices":3,
					"material":0
				}
			]
		},
		{
			"name":"Circle.008",
			"primitives":[
				{
					"attributes":{
						"POSITION":4,
						"NORMAL":5,
						"TEXCOORD_0":6
					},
					"indices":7,
					"material":1
				},
				{
					"attributes":{
						"POSITION":8,
						"NORMAL":9,
						"TEXCOORD_0":10
					},
					"indices":11,
					"material":2
				}
			]
		},
		{
			"name":"Circle.016",
			"primitives":[
				{
					"attributes":{
						"POSITION":12,
						"NORMAL":13,
						"TEXCOORD_0":14
					},
					"indices":15,
					"material":3
				},
				{
					"attributes":{
						"POSITION":16,
						"NORMAL":17,
						"TEXCOORD_0":18
					},
					"indices":19,
					"material":4
				}
			]
		},
		{
			"name":"Circle.017",
			"primitives":[
				{
					"attributes":{
						"POSITION":20,
						"NORMAL":21,
						"TEXCOORD_0":22
					},
					"indices":15,
					"material":5
				},
				{
					"attributes":{
						"POSITION":23,
						"NORMAL":24,
						"TEXCOORD_0":25
					},
					"indices":19,
					"material":6
				}
			]
		},
		{
			"name":"Circle.018",
			"primitives":[
				{
					"attributes":{
						"POSITION":26,
						"NORMAL":27,
						"TEXCOORD_0":28
					},
					"indices":29
				}
			]
		},
		{
			"name":"Circle.019",
			"primitives":[
				{
					"attributes":{
						"POSITION":30,
						"NORMAL":31,
						"TEXCOORD_0":32
					},
					"indices":29
				}
			]
		},
		{
			"name":"Circle.014",
			"primitives":[
				{
					"attributes":{
						"POSITION":33,
						"NORMAL":34,
						"TEXCOORD_0":35
					},
					"indices":29
				}
			]
		},
		{
			"name":"Circle.015",
			"primitives":[
				{
					"attributes":{
						"POSITION":36,
						"NORMAL":37,
						"TEXCOORD_0":38
					},
					"indices":15,
					"material":7
				},
				{
					"attributes":{
						"POSITION":39,
						"NORMAL":40,
						"TEXCOORD_0":41
					},
					"indices":19,
					"material":8
				}
			]
		},
		{
			"name":"Circle.013",
			"primitives":[
				{
					"attributes":{
						"POSITION":42,
						"NORMAL":43,
						"TEXCOORD_0":44
					},
					"indices":29
				}
			]
		},
		{
			"name":"Circle.009",
			"primitives":[
				{
					"attributes":{
						"POSITION":45,
						"NORMAL":46,
						"TEXCOORD_0":47
					},
					"indices":15,
					"material":9
				},
				{
					"attributes":{
						"POSITION":48,
						"NORMAL":49,
						"TEXCOORD_0":50
					},
					"indices":19,
					"material":10
				}
			]
		}
	],
	"accessors":[
		{
			"bufferView":0,
			"componentType":5126,
			"count":384,
			"max":[
				3.7099997997283936,
				0,
				3.7099997997283936
			],
			"min":[
				-3.7099997997283936,
				-0.20000000298023224,
				-3.7099997997283936
			],
			"type":"VEC3"
		},
		{
			"bufferView":1,
			"componentType":5126,
			"count":384,
			"type":"VEC3"
		},
		{
			"bufferView":2,
			"componentType":5126,
			"count":384,
			"type":"VEC2"
		},
		{
			"bufferView":3,
			"componentType":5123,
			"count":756,
			"type":"SCALAR"
		},
		{
			"bufferView":4,
			"componentType":5126,
			"count":4320,
			"max":[
				5.373878002166748,
				0.20000021159648895,
				10.253278732299805
			],
			"min":[
				-5.379401683807373,
				0,
				-0.5
			],
			"type":"VEC3"
		},
		{
			"bufferView":5,
			"componentType":5126,
			"count":4320,
			"type":"VEC3"
		},
		{
			"bufferView":6,
			"componentType":5126,
			"count":4320,
			"type":"VEC2"
		},
		{
			"bufferView":7,
			"componentType":5123,
			"count":24480,
			"type":"SCALAR"
		},
		{
			"bufferView":8,
			"componentType":5126,
			"count":2136,
			"max":[
				4.873878479003906,
				0.20000000298023224,
				9.753280639648438
			],
			"min":[
				-4.879403591156006,
				0,
				-4.656612873077393e-10
			],
			"type":"VEC3"
		},
		{
			"bufferView":9,
			"componentType":5126,
			"count":2136,
			"type":"VEC3"
		},
		{
			"bufferView":10,
			"componentType":5126,
			"count":2136,
			"type":"VEC2"
		},
		{
			"bufferView":11,
			"componentType":5123,
			"count":11628,
			"type":"SCALAR"
		},
		{
			"bufferView":12,
			"componentType":5126,
			"count":272,
			"max":[
				0.5,
				0.20000000298023224,
				0
			],
			"min":[
				-0.5,
				0,
				-0.5
			],
			"type":"VEC3"
		},
		{
			"bufferView":13,
			"componentType":5126,
			"count":272,
			"type":"VEC3"
		},
		{
			"bufferView":14,
			"componentType":5126,
			"count":272,
			"type":"VEC2"
		},
		{
			"bufferView":15,
			"componentType":5123,
			"count":1536,
			"type":"SCALAR"
		},
		{
			"bufferView":16,
			"componentType":5126,
			"count":178,
			"max":[
				0.5,
				0.20000000298023224,
				0.5
			],
			"min":[
				-0.5,
				0,
				-4.656612873077393e-10
			],
			"type":"VEC3"
		},
		{
			"bufferView":17,
			"componentType":5126,
			"count":178,
			"type":"VEC3"
		},
		{
			"bufferView":18,
			"componentType":5126,
			"count":178,
			"type":"VEC2"
		},
		{
			"bufferView":19,
			"componentType":5123,
			"count":969,
			"type":"SCALAR"
		},
		{
			"bufferView":20,
			"componentType":5126,
			"count":272,
			"max":[
				0.5,
				0.20000000298023224,
				0
			],
			"min":[
				-0.5,
				0,
				-0.5
			],
			"type":"VEC3"
		},
		{
			"bufferView":21,
			"componentType":5126,
			"count":272,
			"type":"VEC3"
		},
		{
			"bufferView":22,
			"componentType":5126,
			"count":272,
			"type":"VEC2"
		},
		{
			"bufferView":23,
			"componentType":5126,
			"count":178,
			"max":[
				0.5,
				0.20000000298023224,
				0.5
			],
			"min":[
				-0.5,
				0,
				-4.656612873077393e-10
			],
			"type":"VEC3"
		},
		{
			"bufferView":24,
			"componentType":5126,
			"count":178,
			"type":"VEC3"
		},
		{
			"bufferView":25,
			"componentType":5126,
			"count":178,
			"type":"VEC2"
		},
		{
			"bufferView":26,
			"componentType":5126,
			"count":88,
			"max":[
				0.24879035353660583,
				0.20000021159648895,
				0
			],
			"min":[
				-0.24879035353660583,
				0,
				-0.24879035353660583
			],
			"type":"VEC3"
		},
		{
			"bufferView":27,
			"componentType":5126,
			"count":88,
			"type":"VEC3"
		},
		{
			"bufferView":28,
			"componentType":5126,
			"count":88,
			"type":"VEC2"
		},
		{
			"bufferView":29,
			"componentType":5123,
			"count":504,
			"type":"SCALAR"
		},
		{
			"bufferView":30,
			"componentType":5126,
			"count":88,
			"max":[
				0.24879035353660583,
				0.20000021159648895,
				0
			],
			"min":[
				-0.24879035353660583,
				0,
				-0.24879035353660583
			],
			"type":"VEC3"
		},
		{
			"bufferView":31,
			"componentType":5126,
			"count":88,
			"type":"VEC3"
		},
		{
			"bufferView":32,
			"componentType":5126,
			"count":88,
			"type":"VEC2"
		},
		{
			"bufferView":33,
			"componentType":5126,
			"count":88,
			"max":[
				0.24879035353660583,
				0.20000021159648895,
				0
			],
			"min":[
				-0.24879035353660583,
				0,
				-0.24879035353660583
			],
			"type":"VEC3"
		},
		{
			"bufferView":34,
			"componentType":5126,
			"count":88,
			"type":"VEC3"
		},
		{
			"bufferView":35,
			"componentType":5126,
			"count":88,
			"type":"VEC2"
		},
		{
			"bufferView":36,
			"componentType":5126,
			"count":272,
			"max":[
				0.5,
				0.20000000298023224,
				0
			],
			"min":[
				-0.5,
				0,
				-0.5
			],
			"type":"VEC3"
		},
		{
			"bufferView":37,
			"componentType":5126,
			"count":272,
			"type":"VEC3"
		},
		{
			"bufferView":38,
			"componentType":5126,
			"count":272,
			"type":"VEC2"
		},
		{
			"bufferView":39,
			"componentType":5126,
			"count":178,
			"max":[
				0.5,
				0.20000000298023224,
				0.5
			],
			"min":[
				-0.5,
				0,
				-4.656612873077393e-10
			],
			"type":"VEC3"
		},
		{
			"bufferView":40,
			"componentType":5126,
			"count":178,
			"type":"VEC3"
		},
		{
			"bufferView":41,
			"componentType":5126,
			"count":178,
			"type":"VEC2"
		},
		{
			"bufferView":42,
			"componentType":5126,
			"count":88,
			"max":[
				0.24879035353660583,
				0.20000021159648895,
				0
			],
			"min":[
				-0.24879035353660583,
				0,
				-0.24879035353660583
			],
			"type":"VEC3"
		},
		{
			"bufferView":43,
			"componentType":5126,
			"count":88,
			"type":"VEC3"
		},
		{
			"bufferView":44,
			"componentType":5126,
			"count":88,
			"type":"VEC2"
		},
		{
			"bufferView":45,
			"componentType":5126,
			"count":272,
			"max":[
				0.5,
				0.20000000298023224,
				0
			],
			"min":[
				-0.5,
				0,
				-0.5
			],
			"type":"VEC3"
		},
		{
			"bufferView":46,
			"componentType":5126,
			"count":272,
			"type":"VEC3"
		},
		{
			"bufferView":47,
			"componentType":5126,
			"count":272,
			"type":"VEC2"
		},
		{
			"bufferView":48,
			"componentType":5126,
			"count":178,
			"max":[
				0.5,
				0.20000000298023224,
				0.5
			],
			"min":[
				-0.5,
				0,
				-4.656612873077393e-10
			],
			"type":"VEC3"
		},
		{
			"bufferView":49,
			"componentType":5126,
			"count":178,
			"type":"VEC3"
		},
		{
			"bufferView":50,
			"componentType":5126,
			"count":178,
			"type":"VEC2"
		}
	],
	"bufferViews":[
		{
			"buffer":0,
			"byteLength":4608,
			"byteOffset":0,
			"target":34962
		},
		{
			"buffer":0,
			"byteLength":4608,
			"byteOffset":4608,
			"target":34962
		},
		{
			"buffer":0,
			"byteLength":3072,
			"byteOffset":9216,
			"target":34962
		},
		{
			"buffer":0,
			"byteLength":1512,
			"byteOffset":12288,
			"target":34963
		},
		{
			"buffer":0,
			"byteLength":51840,
			"byteOffset":13800,
			"target":34962
		},
		{
			"buffer":0,
			"byteLength":51840,
			"byteOffset":65640,
			"target":34962
		},
		{
			"buffer":0,
			"byteLength":34560,
			"byteOffset":117480,
			"target":34962
		},
		{
			"buffer":0,
			"byteLength":48960,
			"byteOffset":152040,
			"target":34963
		},
		{
			"buffer":0,
			"byteLength":25632,
			"byteOffset":201000,
			"target":34962
		},
		{
			"buffer":0,
			"byteLength":25632,
			"byteOffset":226632,
			"target":34962
		},
		{
			"buffer":0,
			"byteLength":17088,
			"byteOffset":252264,
			"target":34962
		},
		{
			"buffer":0,
			"byteLength":23256,
			"byteOffset":269352,
			"target":34963
		},
		{
			"buffer":0,
			"byteLength":3264,
			"byteOffset":292608,
			"target":34962
		},
		{
			"buffer":0,
			"byteLength":3264,
			"byteOffset":295872,
			"target":34962
		},
		{
			"buffer":0,
			"byteLength":2176,
			"byteOffset":299136,
			"target":34962
		},
		{
			"buffer":0,
			"byteLength":3072,
			"byteOffset":301312,
			"target":34963
		},
		{
			"buffer":0,
			"byteLength":2136,
			"byteOffset":304384,
			"target":34962
		},
		{
			"buffer":0,
			"byteLength":2136,
			"byteOffset":306520,
			"target":34962
		},
		{
			"buffer":0,
			"byteLength":1424,
			"byteOffset":308656,
			"target":34962
		},
		{
			"buffer":0,
			"byteLength":1938,
			"byteOffset":310080,
			"target":34963
		},
		{
			"buffer":0,
			"byteLength":3264,
			"byteOffset":312020,
			"target":34962
		},
		{
			"buffer":0,
			"byteLength":3264,
			"byteOffset":315284,
			"target":34962
		},
		{
			"buffer":0,
			"byteLength":2176,
			"byteOffset":318548,
			"target":34962
		},
		{
			"buffer":0,
			"byteLength":2136,
			"byteOffset":320724,
			"target":34962
		},
		{
			"buffer":0,
			"byteLength":2136,
			"byteOffset":322860,
			"target":34962
		},
		{
			"buffer":0,
			"byteLength":1424,
			"byteOffset":324996,
			"target":34962
		},
		{
			"buffer":0,
			"byteLength":1056,
			"byteOffset":326420,
			"target":34962
		},
		{
			"buffer":0,
			"byteLength":1056,
			"byteOffset":327476,
			"target":34962
		},
		{
			"buffer":0,
			"byteLength":704,
			"byteOffset":328532,
			"target":34962
		},
		{
			"buffer":0,
			"byteLength":1008,
			"byteOffset":329236,
			"target":34963
		},
		{
			"buffer":0,
			"byteLength":1056,
			"byteOffset":330244,
			"target":34962
		},
		{
			"buffer":0,
			"byteLength":1056,
			"byteOffset":331300,
			"target":34962
		},
		{
			"buffer":0,
			"byteLength":704,
			"byteOffset":332356,
			"target":34962
		},
		{
			"buffer":0,
			"byteLength":1056,
			"byteOffset":333060,
			"target":34962
		},
		{
			"buffer":0,
			"byteLength":1056,
			"byteOffset":334116,
			"target":34962
		},
		{
			"buffer":0,
			"byteLength":704,
			"byteOffset":335172,
			"target":34962
		},
		{
			"buffer":0,
			"byteLength":3264,
			"byteOffset":335876,
			"target":34962
		},
		{
			"buffer":0,
			"byteLength":3264,
			"byteOffset":339140,
			"target":34962
		},
		{
			"buffer":0,
			"byteLength":2176,
			"byteOffset":342404,
			"target":34962
		},
		{
			"buffer":0,
			"byteLength":2136,
			"byteOffset":344580,
			"target":34962
		},
		{
			"buffer":0,
			"byteLength":2136,
			"byteOffset":346716,
			"target":34962
		},
		{
			"buffer":0,
			"byteLength":1424,
			"byteOffset":348852,
			"target":34962
		},
		{
			"buffer":0,
			"byteLength":1056,
			"byteOffset":350276,
			"target":34962
		},
		{
			"buffer":0,
			"byteLength":1056,
			"byteOffset":351332,
			"target":34962
		},
		{
			"buffer":0,
			"byteLength":704,
			"byteOffset":352388,
			"target":34962
		},
		{
			"buffer":0,
			"byteLength":3264,
			"byteOffset":353092,
			"target":34962
		},
		{
			"buffer":0,
			"byteLength":3264,
			"byteOffset":356356,
			"target":34962
		},
		{
			"buffer":0,
			"byteLength":2176,
			"byteOffset":359620,
			"target":34962
		},
		{
			"buffer":0,
			"byteLength":2136,
			"byteOffset":361796,
			"target":34962
		},
		{
			"buffer":0,
			"byteLength":2136,
			"byteOffset":363932,
			"target":34962
		},
		{
			"buffer":0,
			"byteLength":1424,
			"byteOffset":366068,
			"target":34962
		}
	],
	"buffers":[
		{
			"byteLength":367492,
			"uri":"data:application/octet-stream;base64,"
		}
	]
}
