<svg width="419" height="340" viewBox="0 0 419 340" fill="none" xmlns="http://www.w3.org/2000/svg">
<g id="sound waves 1">
<path id="Vector" d="M16.575 174.296C21.525 174.296 25.575 171.596 25.575 168.296V123.296C25.575 119.996 21.525 117.296 16.575 117.296C11.625 117.296 7.575 119.996 7.575 123.296V168.296C7.575 171.596 11.625 174.296 16.575 174.296Z" fill="white"/>
<path id="Vector_2" d="M53.575 100.355V191.237C53.575 194.57 57.85 197.296 63.075 197.296C68.3 197.296 72.575 194.57 72.575 191.237V100.355C72.575 97.0225 68.3 94.296 63.075 94.296C57.85 94.296 53.575 97.0225 53.575 100.355Z" fill="white"/>
<path id="Vector_3" d="M98.575 65.3845V225.207C98.575 228.556 102.85 231.296 108.075 231.296C113.3 231.296 117.575 228.556 117.575 225.207V65.3845C117.575 62.0358 113.3 59.296 108.075 59.296C102.85 59.296 98.575 61.7314 98.575 65.3845Z" fill="white"/>
<path id="Vector_4" d="M151.575 100.355V191.237C151.575 194.57 155.85 197.296 161.075 197.296C166.3 197.296 170.575 194.57 170.575 191.237V100.355C170.575 97.0225 166.3 94.296 161.075 94.296C155.85 94.296 151.575 97.0225 151.575 100.355Z" fill="white"/>
<path id="Vector_5" d="M194.575 123.296V168.296C194.575 171.596 198.85 174.296 204.075 174.296C209.3 174.296 213.575 171.596 213.575 168.296V123.296C213.575 119.996 209.3 117.296 204.075 117.296C198.85 117.296 194.575 119.996 194.575 123.296Z" fill="white"/>
<path id="Vector_6" d="M243.575 100.355V191.237C243.575 194.57 247.85 197.296 253.075 197.296C258.3 197.296 262.575 194.57 262.575 191.237V100.355C262.575 97.0225 258.3 94.296 253.075 94.296C247.85 94.296 243.575 97.0225 243.575 100.355Z" fill="white"/>
<path id="Vector_7" d="M288.575 69.3701V221.222C288.575 224.563 292.625 227.296 297.575 227.296C302.525 227.296 306.575 224.563 306.575 221.222V69.3701C306.575 66.0293 302.525 63.296 297.575 63.296C292.625 63.296 288.575 66.0293 288.575 69.3701Z" fill="white"/>
<path id="Vector_8" d="M341.075 94.296C335.85 94.296 331.575 97.0225 331.575 100.355V191.237C331.575 194.57 335.85 197.296 341.075 197.296C346.3 197.296 350.575 194.57 350.575 191.237V100.355C350.575 97.0225 346.3 94.296 341.075 94.296Z" fill="white"/>
<path id="Vector_9" d="M393.075 117.296C387.85 117.296 383.575 119.996 383.575 123.296V168.296C383.575 171.596 387.85 174.296 393.075 174.296C398.3 174.296 402.575 171.596 402.575 168.296V123.296C402.575 119.996 398.3 117.296 393.075 117.296Z" fill="white"/>
</g>
</svg>
